<?xml version="1.0" standalone="no"?>
<!DOCTYPE svg PUBLIC "-//W3C//DTD SVG 20010904//EN"
 "http://www.w3.org/TR/2001/REC-SVG-20010904/DTD/svg10.dtd">
<svg version="1.0" xmlns="http://www.w3.org/2000/svg"
 width="800.000000pt" height="800.000000pt" viewBox="0 0 800.000000 800.000000"
 preserveAspectRatio="xMidYMid meet">
<metadata>
Created by potrace 1.14, written by Peter Selinger 2001-2017
</metadata>
<g transform="translate(0.000000,800.000000) scale(0.100000,-0.100000)"
fill="#000000" stroke="none">
<path d="M1 6363 l2 -1638 18 405 c9 223 18 457 19 520 1 63 4 107 7 98 6 -22
23 -24 23 -2 0 13 8 15 40 11 23 -2 41 0 44 7 2 6 5 3 5 -7 1 -17 3 -17 16 -3
12 12 21 13 40 4 36 -16 14 -44 -34 -42 -20 2 -26 0 -14 -2 13 -3 23 -8 24
-12 4 -41 9 -65 15 -71 4 -3 4 6 0 22 -5 20 -3 27 8 27 8 0 17 6 19 13 2 6 3
0 1 -15 -2 -15 2 -30 8 -34 7 -5 9 -2 5 9 -5 12 2 19 26 26 21 6 25 10 12 10
-16 1 -17 3 -6 10 9 6 21 3 34 -9 10 -10 25 -16 32 -14 7 3 15 -2 18 -10 4 -9
14 -16 23 -16 10 0 14 5 10 16 -3 8 -2 12 4 9 17 -11 11 -35 -9 -35 -11 0 -26
-3 -35 -6 -11 -4 -16 0 -17 12 -1 14 -3 13 -9 -6 l-8 -25 -2 25 -2 25 -7 -25
c-9 -31 -11 -29 27 -34 21 -2 33 2 37 12 5 13 9 11 26 -7 16 -17 27 -20 54
-15 l33 6 0 -44 c-1 -73 0 -75 33 -80 l31 -5 -5 41 c-3 23 -3 33 0 24 2 -10 8
-18 13 -18 5 0 7 -7 4 -15 -5 -11 -2 -13 10 -9 11 4 16 1 16 -10 0 -9 -5 -16
-10 -16 -6 0 -20 -9 -32 -20 -18 -16 -19 -20 -5 -20 8 0 19 5 22 10 3 6 15 10
26 10 10 0 18 6 17 13 -2 6 5 11 14 11 10 -1 18 4 18 12 0 8 -6 14 -12 14 -9
0 -8 4 2 10 13 9 13 11 0 20 -8 5 -10 10 -4 10 5 0 19 -6 30 -14 16 -13 17
-18 6 -36 -14 -23 -14 -22 48 -38 l35 -9 -37 -7 c-36 -7 -54 -26 -24 -26 7 0
19 -7 26 -15 10 -12 16 -13 24 -5 8 8 7 13 -4 20 -8 5 -11 12 -7 16 4 4 16 -1
27 -11 14 -12 17 -21 9 -25 -14 -9 8 -47 31 -54 9 -2 6 -4 -7 -5 -31 -1 -40
-21 -9 -21 30 0 42 16 26 35 -22 26 10 18 35 -9 13 -14 25 -23 28 -20 2 3 2
-7 0 -21 -3 -14 -1 -25 6 -25 5 0 8 7 5 15 -5 11 0 13 25 5 17 -4 35 -11 41
-15 6 -4 10 -3 9 2 -3 20 2 25 16 13 13 -11 15 -7 15 24 0 20 4 36 8 36 10 0
9 -51 -1 -67 -6 -10 2 -13 28 -13 22 0 34 -4 30 -10 -3 -5 -17 -10 -31 -10
-13 0 -24 -5 -24 -11 0 -6 11 -9 25 -7 38 5 30 -16 -10 -23 -19 -3 -39 -10
-43 -14 -4 -5 1 -5 10 -2 12 4 20 -2 27 -21 l11 -27 -5 28 c-4 20 -1 27 10 27
8 0 15 -7 15 -15 0 -8 7 -15 15 -15 8 0 15 -6 15 -12 0 -23 33 34 36 63 3 21
-2 33 -16 41 -11 7 -20 17 -20 22 0 4 6 3 13 -3 19 -15 27 -3 17 24 -5 13 -6
26 -2 30 4 4 7 21 7 38 0 25 4 32 18 31 13 -2 16 3 12 17 -5 15 -2 18 12 13
17 -5 17 -5 1 6 -21 13 -24 32 -4 24 9 -3 17 3 21 17 6 17 9 19 16 8 8 -11 12
-10 24 5 18 23 20 14 4 -16 -8 -15 -8 -23 1 -32 8 -8 10 -7 5 5 -4 10 3 20 20
29 27 14 31 25 15 35 -5 3 -10 1 -10 -6 0 -7 -3 -10 -6 -6 -12 12 15 40 40 42
28 1 35 -12 11 -21 -24 -10 -6 -24 28 -23 31 1 31 1 7 9 -21 7 -12 15 12 11
13 -2 -3 27 -18 33 -8 3 -14 9 -14 14 0 12 43 10 53 -3 5 -6 6 -1 4 10 -2 11
-9 19 -16 17 -21 -4 -3 15 20 21 15 4 19 2 15 -9 -4 -9 -2 -12 5 -8 6 4 15 0
20 -7 6 -10 10 -8 18 11 5 14 10 19 10 11 1 -7 7 -11 16 -8 11 5 9 -2 -5 -29
-23 -40 -24 -44 -10 -44 6 0 17 14 24 30 l13 31 23 -19 c21 -17 23 -22 11 -36
-15 -18 -12 -29 6 -18 18 11 17 34 -1 75 -9 22 -15 44 -12 50 2 7 5 4 5 -5 1
-10 8 -18 17 -18 8 0 12 -4 9 -10 -3 -5 -1 -10 4 -10 6 0 11 9 11 20 0 11 5
20 11 20 6 0 9 6 6 13 -2 7 -15 11 -30 9 -21 -3 -27 1 -26 15 0 10 3 13 6 6 2
-7 9 -13 14 -13 6 0 8 4 5 8 -2 4 4 8 14 9 22 2 33 -32 19 -59 -8 -14 -6 -18
9 -18 10 0 24 -6 31 -12 10 -11 11 -9 5 6 -5 13 -4 17 4 12 7 -4 12 -1 12 8 0
9 -8 16 -17 16 -17 1 -17 1 0 11 19 11 24 39 6 39 -5 0 -7 -4 -4 -10 3 -5 2
-10 -4 -10 -5 0 -13 5 -16 10 -3 6 -1 10 4 10 6 0 11 7 11 15 0 11 5 12 25 5
20 -8 27 -6 31 5 8 21 21 19 27 -4 6 -24 44 -18 50 8 3 9 5 -2 5 -24 0 -22 -2
-34 -5 -27 -2 6 -12 12 -21 12 -15 -1 -15 -2 1 -11 9 -5 17 -20 17 -32 1 -32
30 51 30 86 0 17 5 27 15 27 8 0 15 4 15 10 0 5 7 7 14 4 13 -5 13 -1 4 24 -8
19 -17 28 -26 25 -9 -4 -13 0 -11 12 6 30 23 27 38 -6 10 -23 16 -28 22 -18 7
11 9 10 9 -3 0 -22 -34 -58 -55 -58 -8 0 -15 -5 -15 -11 0 -7 8 -9 23 -4 12 4
31 8 42 9 17 1 20 7 18 31 -3 29 -3 29 16 -8 23 -48 37 -62 45 -48 4 6 2 11
-3 11 -6 0 -11 12 -11 26 0 21 4 25 20 21 18 -5 20 0 20 39 0 44 19 64 21 22
l0 -23 9 23 c5 12 14 22 20 22 5 0 10 7 10 15 0 20 -10 19 -26 -2 -12 -17 -13
-16 -14 5 0 12 6 22 13 22 6 1 -3 14 -21 29 -21 18 -29 31 -23 35 6 4 11 2 11
-3 0 -6 7 -11 15 -11 10 0 15 9 14 28 -1 17 -3 20 -6 9 -2 -9 -9 -15 -14 -11
-5 3 -7 10 -4 15 4 5 1 9 -4 9 -6 0 -11 7 -11 15 0 18 -17 20 -22 3 -5 -14
-58 -2 -58 14 0 12 29 37 44 38 4 0 6 -6 3 -14 -4 -9 0 -12 13 -9 12 3 20 -2
25 -16 7 -24 25 -28 25 -6 0 8 5 15 10 15 6 0 10 7 10 15 0 10 11 15 33 16 30
0 30 1 10 11 -28 13 -53 4 -60 -22 -8 -31 -23 -23 -24 13 0 17 -3 26 -6 20 -7
-19 -23 -16 -23 5 0 14 -2 15 -10 2 -6 -10 -10 -11 -10 -2 0 7 -8 4 -20 -8
-19 -19 -20 -19 -52 10 -18 17 -40 28 -48 25 -8 -3 -4 4 9 15 13 11 20 20 15
20 -4 0 -3 5 3 11 6 6 16 8 23 4 8 -5 6 -11 -7 -21 -17 -13 -17 -15 2 -29 11
-8 25 -19 32 -25 18 -15 27 -12 14 4 -9 11 -9 20 -2 35 15 26 14 31 -5 31 -8
0 -13 4 -9 10 8 12 -5 60 -16 60 -5 0 -9 -7 -9 -15 0 -8 5 -15 10 -15 6 0 10
-4 10 -10 0 -20 -20 -9 -35 20 -15 29 -15 29 17 38 33 9 37 18 23 57 -5 14 -4
16 3 6 8 -11 10 -11 15 0 3 8 6 2 6 -13 1 -19 5 -26 15 -22 9 4 16 -3 19 -18
l4 -23 2 24 c1 20 3 22 17 10 9 -7 31 -12 50 -10 20 1 34 -2 34 -9 0 -6 5 -8
10 -5 22 14 -17 34 -54 28 -29 -5 -36 -3 -36 11 0 10 -5 14 -10 11 -6 -3 -13
1 -16 9 -3 9 -10 13 -15 10 -5 -3 -9 -1 -9 5 0 5 -8 12 -17 14 -13 3 -11 5 7
7 21 2 20 3 -10 10 -33 8 -59 2 -32 -7 13 -5 7 -23 -9 -23 -6 0 -8 4 -5 9 3 5
-8 8 -26 7 -38 -1 -46 14 -17 32 18 11 23 11 30 1 6 -10 11 -10 24 1 13 11 13
15 3 22 -10 7 -10 8 2 7 30 -3 40 1 40 17 0 8 4 13 9 10 5 -3 11 7 14 22 6 33
-2 45 -10 14 -4 -18 -10 -21 -27 -16 -28 9 -47 24 -41 34 3 5 -3 6 -14 3 -22
-6 -36 23 -15 31 8 3 14 1 14 -4 0 -6 7 -10 15 -10 8 0 15 -7 15 -15 0 -8 5
-15 11 -15 5 0 7 6 3 13 -5 8 -2 8 9 -2 12 -9 17 -10 17 -2 0 7 -14 17 -31 23
l-30 10 37 23 c35 21 35 42 -1 29 -12 -5 -14 -9 -4 -14 8 -5 -1 -12 -26 -19
-21 -6 -43 -7 -48 -4 -6 4 -7 -4 -3 -20 6 -24 4 -25 -26 -22 -21 3 -28 1 -19
-4 7 -5 9 -11 4 -14 -13 -8 -37 37 -30 55 4 9 6 9 6 -3 1 -21 51 -23 51 -2 0
8 18 32 41 54 l41 39 -31 0 c-17 0 -31 5 -31 10 0 6 9 10 20 10 17 0 18 3 9
27 -16 43 -29 55 -45 42 -7 -6 -18 -8 -24 -4 -5 3 -10 2 -10 -3 0 -15 26 -22
37 -11 7 7 12 2 15 -15 7 -33 -9 -33 -44 -1 -15 14 -37 25 -50 26 -22 0 -22 1
-3 9 11 5 14 9 7 9 -23 1 14 31 37 31 12 0 21 5 21 10 0 17 -47 11 -54 -6 -4
-9 -9 -14 -12 -11 -3 3 1 14 8 26 19 31 94 30 104 -1 l7 -23 8 24 c5 12 7 26
5 30 -3 4 4 7 14 8 10 1 20 -7 23 -18 4 -15 14 -19 46 -19 48 0 82 -27 76 -61
-2 -12 -1 -18 3 -15 4 4 7 13 7 19 0 7 13 11 30 10 17 -1 24 0 18 3 -7 3 -13
12 -13 19 0 8 -8 11 -22 8 -21 -4 -22 -3 -6 10 17 13 17 15 0 31 -10 9 -24 16
-30 16 -7 0 -12 8 -12 18 0 10 -3 13 -8 6 -4 -6 -20 -16 -37 -23 l-30 -11 32
5 c34 5 63 -2 63 -14 0 -10 -97 -7 -107 3 -4 4 4 18 20 30 30 24 36 46 12 46
-9 0 -20 -11 -25 -25 -10 -27 -40 -34 -40 -10 0 8 -4 15 -10 15 -11 0 -32 -35
-25 -42 3 -3 -2 -5 -9 -5 -11 0 -12 5 -6 17 21 39 -44 100 -73 71 -17 -17 -37
-13 -37 7 0 14 2 15 10 2 11 -17 11 -17 15 28 1 17 -1 32 -6 32 -5 0 -9 -7 -9
-16 0 -8 -4 -13 -9 -9 -5 3 -12 1 -16 -5 -4 -6 -11 -8 -16 -5 -5 4 -9 -1 -9
-10 0 -10 -5 -14 -12 -10 -7 4 -4 -1 7 -11 18 -15 18 -16 2 -10 -10 3 -22 6
-27 6 -5 0 -12 9 -15 20 -4 11 -11 18 -16 15 -5 -4 -9 1 -9 9 0 9 -6 16 -12
16 -7 1 2 7 20 15 18 8 31 19 28 24 -4 5 -1 13 5 17 8 5 9 3 4 -6 -6 -9 -4
-12 6 -8 10 4 15 -1 16 -13 1 -12 -3 -16 -13 -12 -8 3 -14 1 -14 -5 0 -14 24
-22 50 -15 12 3 19 11 16 19 -3 7 0 16 6 20 7 4 8 3 4 -4 -4 -7 -1 -12 7 -12
11 0 13 7 10 23 -3 12 -3 19 0 16 6 -5 15 -40 16 -66 1 -7 6 -13 13 -13 6 0
19 -7 28 -15 24 -22 57 -26 64 -9 4 12 2 12 -14 4 -21 -11 -21 -11 -25 40 0 8
-4 21 -9 28 -5 9 3 24 24 45 28 27 30 32 16 43 -9 6 -16 16 -16 23 0 6 -5 11
-11 11 -5 0 -7 5 -4 10 9 14 25 12 25 -3 0 -7 9 -18 21 -25 16 -10 20 -10 18
0 -3 28 1 48 12 48 5 0 7 -4 4 -10 -3 -5 -2 -10 4 -10 6 0 7 -7 4 -17 -5 -12
-3 -14 7 -8 10 6 12 4 7 -8 -8 -21 0 -22 19 -2 14 14 11 20 -10 16 -5 -1 -6 5
-3 12 3 8 1 19 -5 25 -7 7 0 13 26 18 20 3 35 9 32 12 -9 9 -98 -21 -103 -35
-8 -20 -23 -16 -23 7 0 21 -33 29 -45 10 -4 -6 1 -7 12 -3 14 5 16 3 6 -7 -10
-11 -15 -11 -29 1 -9 7 -19 21 -23 31 -5 15 -8 13 -18 -13 -9 -24 -9 -28 0
-20 9 7 13 5 13 -10 0 -12 -5 -18 -14 -14 -7 2 -10 1 -7 -5 3 -5 -3 -8 -14 -7
-24 1 -36 36 -15 44 8 3 14 9 14 15 0 5 -4 6 -10 3 -5 -3 -10 -1 -10 6 0 7 8
9 21 6 12 -3 18 -3 15 0 -3 3 -1 15 5 25 8 15 14 17 22 9 17 -17 37 -13 37 7
0 20 -29 27 -31 8 0 -6 -4 -2 -9 9 -8 18 -9 18 -9 2 -1 -14 -5 -16 -20 -7 -25
13 -31 13 -31 0 0 -5 10 -10 22 -10 12 0 18 -3 14 -7 -14 -14 -37 -11 -50 8
-12 17 -13 13 -10 -33 1 -29 0 -41 -2 -25 -3 15 -9 25 -14 22 -5 -3 -7 -12 -4
-19 3 -8 1 -17 -5 -21 -6 -3 -8 0 -5 9 8 20 -27 26 -49 7 -16 -13 -20 -13 -40
8 l-22 22 56 -5 c54 -4 57 -3 55 18 -1 24 -26 32 -26 9 0 -14 -13 -16 -45 -7
-17 4 -20 12 -17 45 3 23 -1 46 -7 52 -9 9 -11 7 -10 -8 1 -11 1 -33 0 -50
l-3 -30 -8 35 c-12 51 17 87 46 57 9 -9 57 3 66 17 4 6 5 19 2 30 -4 13 -3 16
6 11 8 -5 11 -4 6 3 -3 6 -24 10 -46 9 -22 -2 -40 0 -40 4 0 8 149 18 435 29
380 15 1149 66 1022 69 -60 1 -74 5 -131 41 -35 22 -66 40 -70 40 -16 0 -86
54 -86 66 0 8 3 14 8 15 4 0 84 6 177 13 149 12 172 11 187 -2 10 -8 15 -19
11 -25 -3 -5 0 -8 8 -5 8 3 22 -6 32 -19 22 -28 71 -55 82 -45 5 4 5 1 1 -5
-4 -7 -3 -13 2 -13 5 0 22 -10 38 -22 l29 -23 -85 -6 -85 -5 95 -2 c52 -1 151
3 220 8 68 5 125 8 126 7 6 -5 14 -333 19 -702 3 -225 8 -500 10 -610 3 -110
5 -254 6 -320 0 -66 4 -138 8 -160 11 -58 6 -66 -30 -53 -58 20 -202 -11 -222
-48 -6 -11 -13 -21 -17 -24 -19 -13 -51 -101 -56 -154 -9 -95 -8 -106 12 -106
8 0 12 5 9 10 -3 6 -1 10 6 10 7 0 9 -10 7 -25 -3 -16 -1 -25 7 -25 22 0 24
-26 4 -38 -12 -8 -19 -8 -19 -2 0 5 6 10 13 10 6 1 3 6 -9 13 -12 7 -19 19
-16 27 3 10 -2 8 -15 -5 -11 -11 -17 -24 -13 -30 9 -13 6 -59 -9 -111 -11 -41
-12 -93 -1 -92 3 0 10 0 15 -1 15 -2 -155 -81 -174 -81 -9 0 -52 -14 -96 -31
-44 -17 -87 -33 -96 -36 -15 -4 -38 -73 -83 -248 -8 -31 -19 -51 -29 -53 -13
-3 -16 -15 -15 -60 1 -34 -8 -85 -20 -126 -12 -37 -27 -108 -32 -157 -6 -48
-14 -99 -20 -113 l-10 -26 201 0 c160 0 203 3 215 14 11 11 11 16 1 19 -9 4
-9 6 1 6 6 1 12 8 12 16 0 16 21 63 57 125 11 19 23 48 27 64 4 15 12 34 19
42 34 38 41 49 42 66 1 10 -4 18 -12 18 -17 0 -17 17 1 27 8 4 15 13 15 18 1
13 71 19 71 6 0 -6 -6 -9 -12 -7 -7 1 -10 1 -5 -1 4 -3 4 -10 0 -16 -4 -7 1
-6 11 2 15 13 19 13 27 0 13 -21 11 -33 -5 -20 -10 9 -15 8 -20 -4 -3 -9 0
-15 9 -15 8 0 15 -5 15 -10 0 -7 -7 -7 -20 0 -11 6 -18 15 -15 21 7 11 -2 11
-30 -1 l-20 -8 20 -8 c22 -8 35 -23 35 -39 0 -7 -3 -7 -8 0 -13 18 -30 15 -25
-5 3 -11 9 -17 14 -14 5 3 9 3 9 -1 0 -3 -12 -10 -27 -16 -22 -8 -24 -12 -13
-19 9 -6 10 -10 3 -10 -6 0 -24 -20 -40 -45 -15 -25 -32 -45 -36 -45 -5 0 -6
-4 -3 -9 4 -5 2 -21 -4 -35 -7 -19 -14 -24 -27 -19 -17 5 -17 5 -1 -8 15 -12
15 -17 4 -32 -8 -10 -19 -16 -26 -15 -6 2 -16 -7 -21 -19 l-8 -23 146 0 c125
0 149 3 166 17 20 17 20 17 14 -1 -7 -17 -1 -18 117 -11 85 5 126 4 130 -4 4
-6 22 -18 41 -27 19 -9 35 -20 35 -25 0 -5 11 -14 23 -18 25 -10 76 -100 101
-181 l14 -45 0 35 c1 19 -10 55 -23 80 -13 25 -31 60 -40 78 -8 17 -19 32 -23
32 -4 0 -18 10 -32 23 -14 13 -34 28 -45 35 -16 9 -2 11 76 12 l96 0 7 -38 c9
-58 5 -334 -5 -292 -11 49 -2 -270 10 -345 5 -33 13 -357 17 -720 3 -363 9
-873 13 -1134 4 -314 3 -482 -4 -495 -10 -20 -30 -33 -95 -60 -51 -21 -190
-66 -205 -66 -7 0 -16 -10 -20 -22 l-8 -23 -4 23 c-3 16 -10 21 -21 18 -9 -3
-64 -12 -121 -21 -58 -9 -107 -17 -108 -19 -7 -7 75 -19 192 -27 143 -10 187
-17 200 -33 6 -7 21 -20 35 -29 13 -9 19 -17 12 -17 -7 0 -10 -4 -7 -10 12
-19 -6 -32 -23 -17 -25 22 -75 28 -312 37 -118 5 -258 15 -310 23 -52 8 -126
17 -164 21 -38 3 -72 9 -77 12 -4 2 -32 7 -61 10 -29 3 -56 8 -60 11 -16 9 -7
42 16 60 l24 18 -30 115 c-16 63 -33 133 -38 155 -5 22 -20 72 -35 110 -15 39
-30 88 -35 110 -12 62 -47 192 -54 204 -12 19 -26 12 -26 -14 0 -29 -16 -29
-44 2 -12 12 -45 31 -73 42 -52 20 -53 20 -53 2 0 -16 -6 -18 -37 -15 -21 2
-126 6 -233 9 -107 3 -201 6 -208 7 -7 1 -12 11 -10 22 4 29 63 48 171 54 48
2 87 8 87 13 0 11 -61 26 -142 34 -37 4 -71 11 -74 16 -6 10 32 49 48 49 4 0
8 13 8 30 0 25 -4 30 -32 34 -18 3 -75 12 -127 21 -52 8 -137 15 -188 15 -88
0 -93 -1 -78 -16 14 -15 14 -19 2 -31 -23 -24 -137 -45 -247 -47 l-105 -1 2
28 c2 26 0 28 -27 22 -52 -11 -194 -73 -215 -93 -11 -11 -28 -30 -37 -43 -14
-19 -19 -21 -27 -10 -7 10 -22 12 -59 7 -32 -4 -53 -3 -57 4 -6 10 -2 19 40
75 15 21 10 65 -6 65 -5 0 -30 -21 -55 -47 -37 -39 -44 -53 -40 -75 4 -21 1
-28 -14 -33 -13 -4 -19 -14 -17 -28 2 -19 -4 -23 -48 -29 -48 -6 -200 -22
-315 -33 -64 -6 -151 -14 -200 -20 -19 -2 -70 -4 -112 -4 l-78 -1 0 -186 c0
-144 3 -185 12 -181 10 3 13 37 13 128 0 149 8 169 65 169 57 0 90 -15 90 -41
0 -13 8 -31 17 -42 10 -11 12 -17 6 -13 -14 8 -15 0 -14 -134 1 -53 6 -89 14
-96 26 -25 328 -46 342 -24 3 6 19 10 34 10 23 0 30 -5 34 -29 4 -19 14 -32
29 -37 28 -8 38 -22 38 -55 0 -31 -17 -49 -47 -49 -13 0 -23 -4 -23 -8 0 -12
-39 -13 -100 -2 -30 5 -84 12 -120 16 -36 4 -72 8 -80 8 -8 1 -33 7 -55 13
-37 11 -103 22 -212 39 l-43 6 0 -586 0 -586 1926 0 1927 0 -8 103 c-4 56 -9
116 -11 132 -2 17 -8 138 -13 270 -9 217 -8 241 7 252 9 7 22 13 29 13 18 0
90 47 133 87 19 18 41 31 48 28 7 -3 10 -1 7 4 -3 6 6 21 19 34 16 16 27 21
30 14 2 -7 5 -5 5 4 1 23 33 19 48 -6 12 -19 12 -19 13 5 1 14 4 20 6 13 3 -7
11 -10 19 -7 10 4 12 -1 9 -18 l-5 -23 12 22 c11 21 40 40 38 25 -1 -4 2 -17
6 -30 7 -20 13 -22 61 -21 42 2 54 6 55 18 0 12 3 11 9 -4 6 -14 9 -16 9 -4 1
12 13 15 64 14 34 0 68 -4 75 -8 8 -6 12 -1 12 12 0 12 6 21 14 21 10 0 12 -7
8 -22 -4 -16 -2 -19 9 -12 8 5 22 7 31 6 13 -2 16 1 12 12 -3 9 -1 16 5 16 6
0 11 -6 11 -12 0 -7 12 -14 28 -14 15 -1 21 1 15 3 -7 3 -13 11 -13 19 0 24
16 15 31 -17 l15 -31 14 29 c8 15 16 30 17 32 1 2 9 -2 17 -8 22 -18 66 -24
66 -8 0 13 49 42 87 50 12 3 59 1 105 -3 101 -10 218 -18 358 -25 58 -3 112
-8 122 -11 10 -3 23 4 33 18 13 17 16 18 11 5 -7 -22 8 -38 49 -55 40 -15 94
-21 250 -28 86 -3 165 -14 232 -30 56 -13 140 -30 185 -38 98 -16 141 -31 135
-49 -2 -8 -26 -12 -73 -11 -127 1 -356 14 -366 20 -13 8 -58 11 -243 18 -71 3
-155 7 -185 10 -30 3 -100 8 -155 12 -172 12 -262 21 -335 34 -123 23 -128 23
-152 0 -21 -20 -23 -30 -25 -148 -1 -138 -10 -396 -20 -589 l-6 -123 1592 0
1591 0 0 1128 0 1128 -38 17 c-21 9 -46 17 -55 17 -9 0 -18 4 -22 9 -3 6 -27
13 -53 17 -26 4 -63 13 -82 20 -74 28 -187 54 -237 54 -29 0 -116 13 -195 29
-179 36 -278 48 -278 32 0 -14 -83 -51 -114 -51 -12 0 -33 10 -46 22 -21 20
-37 23 -129 26 -117 3 -119 4 -202 80 -70 64 -112 85 -152 77 -90 -17 -134
-31 -156 -47 -13 -10 -29 -18 -36 -18 -13 0 -95 -93 -95 -108 0 -6 -14 -23
-31 -39 -17 -15 -35 -37 -40 -48 -5 -11 -20 -38 -34 -60 -33 -51 -45 -81 -45
-107 0 -11 -15 -41 -34 -67 -72 -100 -124 -340 -106 -489 22 -173 22 -172 -9
-172 -60 0 -151 13 -151 22 0 5 4 7 9 3 6 -3 6 7 1 27 -7 21 -6 36 2 45 6 7 9
15 6 18 -8 8 -563 36 -886 44 -177 5 -325 10 -327 13 -2 2 -5 445 -7 983 -2
1172 -13 2025 -24 2034 -20 14 -24 800 -6 907 9 53 13 323 15 1030 l2 959 190
7 c105 3 323 16 485 27 162 11 394 25 515 31 121 6 506 26 855 45 349 19 687
37 750 39 63 3 260 15 437 28 l323 22 0 133 0 133 -4000 0 -4000 0 1 -1637z
m3144 1224 c10 -8 14 -16 9 -19 -5 -3 -18 3 -28 13 -22 22 -9 26 19 6z m1264
-749 c0 -381 -3 -759 -6 -839 l-6 -146 -271 -7 c-149 -4 -326 -9 -393 -12
l-123 -5 -1 118 c-1 65 -3 141 -4 168 -2 28 -6 228 -9 445 -8 528 -16 892 -21
907 -3 8 20 14 68 18 102 9 641 42 710 44 l57 1 -1 -692z m-4029 578 c90 -12
159 -25 153 -29 -6 -4 -18 -4 -27 -1 -9 4 -18 0 -21 -8 -9 -23 -33 -18 -29 6
3 12 2 15 -2 9 -3 -7 -12 -13 -20 -13 -9 0 -13 -4 -10 -8 3 -5 0 -9 -7 -9 -7
0 -21 -4 -31 -9 -14 -5 -17 -4 -12 4 4 7 1 12 -8 12 -8 0 -18 -4 -21 -10 -3
-5 -11 -10 -16 -10 -6 0 -8 4 -5 9 4 5 0 12 -6 15 -11 5 -11 7 0 12 14 6 7 24
-10 24 -6 0 -8 -11 -6 -24 4 -20 1 -23 -19 -22 -27 1 -27 0 -7 20 11 12 12 16
2 16 -20 0 -33 -13 -36 -35 -7 -37 -23 -42 -18 -5 l5 35 -15 -32 c-14 -33 -32
-47 -20 -18 3 9 1 15 -7 14 -32 -4 -46 3 -55 29 -6 15 -11 20 -11 12 -1 -13
-2 -13 -11 0 -5 8 -10 23 -10 33 0 21 -15 22 280 -17z m526 -58 c125 -17 170
-26 167 -35 -3 -7 0 -13 6 -13 6 0 11 8 11 17 0 9 3 14 6 10 4 -3 4 -17 0 -31
-7 -30 -36 -25 -36 6 0 10 -4 16 -10 13 -5 -3 -10 -14 -10 -24 0 -15 -5 -17
-32 -12 -18 4 -31 11 -30 15 4 10 -17 26 -33 26 -5 0 -4 -4 3 -9 11 -7 11 -9
-2 -14 -10 -4 -16 -1 -16 8 0 10 -7 12 -30 5 -23 -7 -30 -5 -30 6 0 8 -4 14
-9 14 -5 0 -8 -6 -7 -14 0 -8 -3 -15 -9 -15 -5 0 -9 7 -9 14 1 8 -2 12 -7 9
-5 -3 -10 3 -10 13 -1 16 -2 16 -6 -1 -4 -15 -7 -16 -15 -5 -7 10 -8 8 -3 -8
9 -34 -12 -36 -24 -2 -11 31 -31 32 -31 1 0 -15 2 -15 10 -2 6 9 10 10 10 3 0
-6 3 -20 6 -30 5 -15 4 -15 -5 -3 -9 13 -11 12 -11 -5 0 -13 -7 -7 -19 20 -14
30 -20 36 -25 24 -5 -10 -17 -15 -33 -13 -15 1 -42 -4 -60 -11 -38 -16 -53 -4
-18 15 13 7 22 17 19 22 -8 12 -42 10 -48 -4 -4 -7 -4 -3 -2 9 2 12 -1 25 -8
28 -22 10 182 -5 350 -27z m-370 12 c8 0 14 -8 14 -17 0 -14 -2 -15 -9 -5 -4
7 -18 14 -29 15 -12 1 -22 5 -22 10 0 5 7 6 16 3 9 -3 22 -6 30 -6z m-52 -32
c5 -10 7 -10 12 0 9 19 23 14 21 -7 -1 -11 -11 -24 -23 -30 -19 -8 -21 -7 -17
10 6 21 -7 25 -25 7 -9 -9 -15 -9 -24 0 -9 9 -8 12 6 12 9 0 14 5 11 10 -3 6
3 10 14 10 10 0 22 -6 25 -12z m702 -4 c-3 -8 0 -16 6 -20 7 -5 8 -2 3 6 -5 9
-4 11 3 6 9 -5 9 -13 2 -27 -6 -10 -13 -19 -16 -19 -3 0 -3 3 0 8 10 17 -23
44 -49 40 -14 -3 -25 -2 -25 3 0 7 28 13 68 15 7 0 11 -5 8 -12z m104 8 c0 -4
-17 -6 -37 -4 -59 5 -63 10 -10 11 26 1 47 -3 47 -7z m31 -7 c5 4 6 -1 2 -10
-5 -13 -7 -14 -14 -3 -5 7 -8 18 -8 23 0 6 3 4 6 -3 2 -6 9 -10 14 -7z m-980
-37 c-3 -21 -6 -26 -9 -15 -3 17 3 47 11 47 2 0 1 -15 -2 -32z m49 12 c0 -5
-4 -12 -10 -15 -5 -3 -10 -4 -10 -1 0 2 -3 12 -6 20 -5 12 -2 15 10 10 9 -3
16 -10 16 -14z m453 -29 c13 -10 19 -9 34 8 21 25 29 26 51 4 16 -16 15 -16
-7 -10 -23 6 -61 -10 -61 -26 0 -4 5 -5 10 -2 6 3 10 1 10 -4 0 -21 -28 -11
-34 12 -6 20 -7 21 -20 5 -11 -15 -13 -12 -14 25 0 31 1 37 8 22 4 -12 15 -27
23 -34z m572 39 c3 -5 1 -10 -4 -10 -6 0 -11 5 -11 10 0 6 2 10 4 10 3 0 8 -4
11 -10z m65 -11 c0 -5 -7 -9 -15 -9 -15 0 -20 12 -9 23 8 8 24 -1 24 -14z
m110 11 c0 -5 -9 -10 -21 -10 -11 0 -17 5 -14 10 3 6 13 10 21 10 8 0 14 -4
14 -10z m-1353 -22 c-3 -8 -6 -5 -6 6 -1 11 2 17 5 13 3 -3 4 -12 1 -19z
m1063 12 c0 -5 -4 -10 -10 -10 -5 0 -10 5 -10 10 0 6 5 10 10 10 6 0 10 -4 10
-10z m-625 -10 c3 -5 1 -10 -4 -10 -6 0 -11 5 -11 10 0 6 2 10 4 10 3 0 8 -4
11 -10z m289 -49 c-4 -18 -10 -29 -13 -24 -11 18 -44 24 -53 11 -6 -9 -8 -7
-6 7 2 12 12 21 26 23 13 2 26 10 29 18 10 27 23 -1 17 -35z m182 37 c4 -7 3
-8 -4 -4 -7 4 -12 2 -12 -5 0 -7 -3 -10 -6 -6 -6 5 3 27 11 27 2 0 7 -5 11
-12z m180 -25 c-11 -11 -17 4 -9 23 7 18 8 18 11 1 2 -10 1 -21 -2 -24z m54
27 c0 -5 -5 -10 -11 -10 -5 0 -7 5 -4 10 3 6 8 10 11 10 2 0 4 -4 4 -10z
m-846 -8 c3 -5 -1 -9 -9 -9 -8 0 -12 4 -9 9 3 4 7 8 9 8 2 0 6 -4 9 -8z m750
-1 c3 -4 -1 -17 -9 -27 -14 -18 -14 -18 -15 9 0 26 13 36 24 18z m-604 -12
c11 -7 4 -8 -25 -3 -50 8 -58 14 -19 14 16 0 36 -5 44 -11z m434 -27 c-8 -2
-15 -13 -15 -25 -1 -21 -2 -21 -6 -2 -3 11 -10 26 -15 33 -8 9 -6 12 6 12 9 0
16 5 16 12 0 6 6 3 14 -8 13 -16 13 -19 0 -22z m319 29 c5 -1 6 -5 2 -10 -3
-6 4 -15 16 -22 l22 -11 -20 -17 c-11 -9 -23 -23 -27 -31 -3 -8 -4 -4 -3 10 1
14 6 28 11 31 5 4 5 12 1 19 -6 9 -10 9 -17 -1 -7 -11 -8 -9 -4 4 4 14 1 18
-11 15 -9 -2 -18 -9 -21 -17 -3 -8 0 -11 7 -7 6 4 11 2 11 -3 0 -18 -28 -12
-32 7 -4 20 19 41 41 37 9 -2 20 -4 24 -4z m-1263 -7 c0 -8 -19 -13 -24 -6 -3
5 1 9 9 9 8 0 15 -2 15 -3z m569 -16 c12 -15 11 -18 -3 -18 -10 0 -16 8 -16
22 0 12 1 19 3 17 1 -2 9 -12 16 -21z m299 -98 c1 -110 -5 -139 -24 -109 -3 6
-1 15 6 19 7 4 9 16 5 29 -8 25 -25 28 -25 5 0 -14 -3 -14 -15 -4 -22 18 -18
30 10 30 18 0 25 5 25 20 0 16 -7 20 -36 20 -23 0 -33 4 -28 11 3 6 0 15 -7
20 -11 7 -11 9 -1 9 7 0 15 -7 18 -15 7 -16 44 -21 44 -6 0 5 -9 13 -20 16
-11 3 -20 10 -20 15 0 4 9 10 20 13 23 6 27 27 5 27 -8 0 -15 5 -15 10 0 6 13
10 29 10 l28 0 1 -120z m-732 88 c0 -10 -1 -18 -3 -18 -1 0 -7 8 -12 18 -7 13
-6 19 2 19 7 0 13 -9 13 -19z m494 13 c0 -5 8 -12 18 -14 13 -4 14 -5 1 -6 -8
0 -24 6 -35 14 -17 13 -17 14 -1 15 9 0 17 -4 17 -9z m270 -27 c0 -8 -4 -14
-10 -14 -5 0 -10 9 -10 21 0 11 5 17 10 14 6 -3 10 -13 10 -21z m115 16 c-3
-5 -14 -10 -23 -10 -15 0 -15 2 -2 10 20 13 33 13 25 0z m120 0 c-3 -5 -10
-10 -16 -10 -5 0 -9 5 -9 10 0 6 7 10 16 10 8 0 12 -4 9 -10z m75 -33 c13 -2
26 -10 28 -18 3 -11 1 -11 -7 1 -6 8 -11 12 -11 8 0 -4 -11 -4 -23 1 -13 5
-30 5 -37 1 -8 -5 -18 -6 -23 -3 -5 3 2 11 15 17 12 7 25 9 28 4 3 -4 17 -9
30 -11z m-533 -12 c3 -20 3 -20 -6 0 -8 17 -10 15 -10 -14 -1 -41 -7 -38 -14
7 -4 27 -2 33 11 30 9 -2 18 -12 19 -23z m-90 9 c-3 -3 -12 -4 -19 -1 -8 3 -5
6 6 6 11 1 17 -2 13 -5z m159 -19 c2 -29 -22 -35 -29 -7 -3 14 -6 13 -15 -8
-10 -23 -11 -24 -11 -3 -1 15 8 24 27 31 15 6 27 11 27 11 0 1 1 -10 1 -24z
m308 3 c-4 -6 -10 -5 -15 3 -6 10 -9 11 -9 2 0 -7 -8 -13 -17 -13 -17 1 -17 2
0 15 20 15 51 9 41 -7z m0 -70 c-10 -16 -22 -7 -17 13 4 15 8 17 14 8 4 -7 5
-17 3 -21z m-416 -23 c-3 -3 -9 2 -12 12 -6 14 -5 15 5 6 7 -7 10 -15 7 -18z
m762 15 c0 -5 -8 -10 -17 -10 -15 0 -16 2 -3 10 19 12 20 12 20 0z m-620 -24
c8 -11 10 -17 3 -13 -7 4 -17 0 -23 -10 -11 -17 -11 -17 -6 0 3 10 6 26 6 34
0 9 1 14 3 12 1 -2 9 -13 17 -23z m523 4 c-3 -12 -8 -19 -11 -16 -5 6 5 36 12
36 2 0 2 -9 -1 -20z m137 4 c0 -8 -5 -12 -10 -9 -6 4 -8 11 -5 16 9 14 15 11
15 -7z m-440 -4 c-8 -5 -19 -10 -25 -10 -5 0 -3 5 5 10 8 5 20 10 25 10 6 0 3
-5 -5 -10z m-86 -15 c-4 -8 -8 -15 -10 -15 -2 0 -4 7 -4 15 0 8 4 15 10 15 5
0 7 -7 4 -15z m251 -24 c-6 -5 -25 10 -25 20 0 5 6 4 14 -3 8 -7 12 -15 11
-17z m421 12 c-3 -7 1 -13 10 -13 8 0 12 -5 9 -11 -5 -7 -15 -5 -31 5 -31 21
-51 21 -34 1 7 -8 19 -15 26 -15 8 0 14 -7 14 -15 0 -20 -19 -19 -42 2 -17 15
-24 44 -13 55 3 2 18 4 35 4 21 0 29 -4 26 -13z m-76 -8 c0 -7 -11 -11 -27 -9
-16 2 -20 1 -10 -2 9 -3 17 -10 17 -15 0 -6 -5 -7 -11 -3 -8 4 -9 -1 -4 -17 4
-17 3 -20 -3 -10 -9 12 -11 12 -15 0 -2 -8 -2 -4 0 9 2 16 -1 22 -16 22 -14 0
-18 5 -14 18 3 14 14 19 44 19 24 0 39 -5 39 -12z m-1030 1 c0 -3 -4 -8 -10
-11 -5 -3 -10 -1 -10 4 0 6 5 11 10 11 6 0 10 -2 10 -4z m897 -18 c-3 -8 -6
-5 -6 6 -1 11 2 17 5 13 3 -3 4 -12 1 -19z m-133 -22 c-3 -13 -1 -33 5 -44 13
-24 -1 -38 -18 -19 -7 9 -7 24 0 50 11 40 23 52 13 13z m-454 4 c0 -5 -7 -7
-15 -4 -8 4 -15 8 -15 10 0 2 7 4 15 4 8 0 15 -4 15 -10z m594 -21 c-29 -12
-36 -10 -22 5 7 7 19 11 27 8 11 -4 10 -7 -5 -13z m53 15 c-3 -3 -12 -4 -19
-1 -8 3 -5 6 6 6 11 1 17 -2 13 -5z m-632 -34 c3 -5 1 -10 -4 -10 -6 0 -11 5
-11 10 0 6 2 10 4 10 3 0 8 -4 11 -10z m558 -13 c-3 -5 -11 -6 -18 -3 -8 3
-16 -3 -18 -12 -3 -12 -5 -11 -6 5 -1 18 4 22 23 21 14 -1 22 -6 19 -11z
m-216 -39 c-3 -7 -5 -2 -5 12 0 14 2 19 5 13 2 -7 2 -19 0 -25z m413 22 c0 -5
-2 -10 -4 -10 -3 0 -8 5 -11 10 -3 6 -1 10 4 10 6 0 11 -4 11 -10z m-687 -25
c4 -8 2 -17 -3 -20 -6 -4 -10 3 -10 14 0 25 6 27 13 6z m-46 -17 c-3 -8 -6 -5
-6 6 -1 11 2 17 5 13 3 -3 4 -12 1 -19z m-202 -8 c-3 -5 -10 -10 -16 -10 -5 0
-9 5 -9 10 0 6 7 10 16 10 8 0 12 -4 9 -10z m745 -4 c0 -2 -7 -7 -16 -10 -8
-3 -12 -2 -9 4 6 10 25 14 25 6z m-113 -28 c-3 -8 -6 -5 -6 6 -1 11 2 17 5 13
3 -3 4 -12 1 -19z m56 4 c-3 -7 -9 -10 -12 -5 -3 4 -10 11 -15 15 -4 4 1 6 12
5 12 -1 18 -6 15 -15z m-433 -4 c0 -11 -38 -10 -44 1 -3 5 5 8 19 7 14 0 25
-4 25 -8z m660 -3 c-10 -12 -10 -15 4 -15 25 0 19 -18 -11 -35 l-28 -16 30 6
c23 5 27 4 18 -6 -7 -7 -22 -9 -39 -5 -22 6 -25 9 -13 17 11 8 11 12 2 16 -19
7 -16 26 3 19 8 -3 12 -2 9 4 -9 14 3 30 22 30 13 0 13 -3 3 -15z m-702 -22
c-10 -2 -26 -2 -35 0 -10 3 -2 5 17 5 19 0 27 -2 18 -5z m33 -20 c-12 -20 -14
-14 -5 12 4 9 9 14 11 11 3 -2 0 -13 -6 -23z m388 -20 c1 -7 -6 -13 -14 -13
-8 0 -15 5 -15 11 0 5 5 7 10 4 7 -4 9 3 5 22 -4 23 -4 24 4 8 5 -11 10 -26
10 -32z m117 6 c-2 -17 -8 -34 -12 -37 -4 -4 -4 1 -1 11 6 15 3 17 -14 12 -20
-7 -20 -6 2 19 29 33 31 33 25 -5z m54 27 c0 -3 -4 -8 -10 -11 -5 -3 -10 -1
-10 4 0 6 5 11 10 11 6 0 10 -2 10 -4z m-111 -43 c8 -15 8 -23 1 -23 -5 0 -10
8 -10 18 0 11 -3 13 -8 6 -5 -9 -10 -8 -19 1 -10 11 -9 14 5 17 21 5 17 7 31
-19z m-164 7 c-3 -5 -12 -10 -18 -10 -7 0 -6 4 3 10 19 12 23 12 15 0z m261
-20 c-1 -16 -6 -33 -10 -37 -5 -4 -5 3 -1 16 5 15 4 21 -3 17 -6 -4 -10 2 -9
14 1 11 7 20 13 20 7 0 11 -12 10 -30z m64 -44 c0 -26 -6 -18 -14 19 -5 22 -4
26 4 15 5 -8 10 -24 10 -34z m-600 -17 c0 -11 -4 -18 -10 -14 -5 3 -7 12 -3
20 7 21 13 19 13 -6z m205 11 c3 -5 1 -10 -4 -10 -6 0 -11 5 -11 10 0 6 2 10
4 10 3 0 8 -4 11 -10z m305 -34 c0 -8 -4 -17 -9 -21 -12 -7 -24 12 -16 25 9
15 25 12 25 -4z m70 -1 c0 -8 -4 -15 -9 -15 -5 0 -11 7 -15 15 -3 9 0 15 9 15
8 0 15 -7 15 -15z m-155 -35 c3 -5 1 -10 -4 -10 -6 0 -11 5 -11 10 0 6 2 10 4
10 3 0 8 -4 11 -10z m88 -15 c36 3 49 0 54 -11 5 -13 7 -13 14 -2 7 10 9 9 9
-4 0 -25 -18 -32 -36 -14 -22 22 -27 20 -20 -9 5 -19 3 -23 -8 -19 -8 3 -16
-2 -19 -13 -3 -10 -3 2 1 27 5 41 4 44 -11 31 -10 -7 -17 -10 -17 -5 0 5 -5 2
-10 -6 -8 -13 -10 -12 -10 3 0 9 -4 17 -10 17 -5 0 -10 -5 -10 -12 0 -6 -3 -8
-6 -5 -4 4 -1 14 6 22 8 10 16 12 19 6 4 -5 28 -8 54 -6z m121 2 c-3 -8 -12
-14 -21 -14 -13 0 -13 2 3 14 10 7 19 13 21 13 1 0 0 -6 -3 -13z m-444 -7 c0
-5 -5 -10 -11 -10 -5 0 -7 5 -4 10 3 6 8 10 11 10 2 0 4 -4 4 -10z m240 -50
c0 -11 -4 -20 -10 -20 -5 0 -10 9 -10 20 0 11 5 20 10 20 6 0 10 -9 10 -20z
m190 6 c0 -7 10 -21 23 -30 l22 -17 -25 7 c-14 4 -27 11 -29 16 -2 6 -7 4 -12
-3 -7 -11 -9 -9 -9 7 0 11 3 24 7 27 11 12 23 8 23 -7z m-225 -5 c3 -5 1 -12
-5 -16 -5 -3 -10 1 -10 9 0 18 6 21 15 7z m302 -10 c10 -16 9 -20 -8 -24 -10
-3 -17 -2 -14 3 3 4 -2 11 -11 14 -8 3 -12 10 -9 16 10 16 29 12 42 -9z m-332
-1 c3 -5 1 -10 -4 -10 -6 0 -11 5 -11 10 0 6 2 10 4 10 3 0 8 -4 11 -10z m85
-28 c0 -9 -45 -10 -54 -2 -3 3 8 7 24 8 17 1 30 -1 30 -6z m-70 -12 c0 -5 -2
-10 -4 -10 -3 0 -8 5 -11 10 -3 6 -1 10 4 10 6 0 11 -4 11 -10z m179 -17 c0
-25 -1 -25 -8 -8 -5 11 -7 23 -4 28 8 14 13 7 12 -20z m51 2 c0 -14 -4 -25 -9
-25 -5 0 -8 11 -8 25 0 14 3 25 8 25 5 0 9 -11 9 -25z m-80 -15 c0 -6 -9 -6
-22 -1 -13 4 -29 6 -35 4 -7 -3 -13 0 -13 5 0 6 8 12 18 15 20 4 52 -10 52
-23z m-302 -45 c-3 -3 -9 2 -12 12 -6 14 -5 15 5 6 7 -7 10 -15 7 -18z m402
11 c0 -2 -7 -6 -15 -10 -8 -3 -15 -1 -15 4 0 6 7 10 15 10 8 0 15 -2 15 -4z
m56 -61 c-8 -8 -25 -15 -38 -15 -13 0 -18 4 -12 8 6 4 13 15 17 24 4 11 12 15
22 12 10 -4 15 0 16 12 1 14 3 13 6 -4 2 -12 -2 -29 -11 -37z m64 35 c0 -5 11
-12 25 -16 14 -3 25 -11 25 -16 0 -5 -3 -8 -7 -6 -5 2 -25 10 -45 18 -41 15
-50 30 -18 30 11 0 20 -4 20 -10z m-173 -32 c-3 -8 -6 -5 -6 6 -1 11 2 17 5
13 3 -3 4 -12 1 -19z m-40 -4 c-3 -3 -12 -4 -19 -1 -8 3 -5 6 6 6 11 1 17 -2
13 -5z m203 -4 c8 -5 11 -10 5 -10 -5 0 -17 5 -25 10 -8 5 -10 10 -5 10 6 0
17 -5 25 -10z m-60 -30 c0 -5 -5 -10 -11 -10 -5 0 -7 5 -4 10 3 6 8 10 11 10
2 0 4 -4 4 -10z m-161 -36 c7 -19 10 -38 7 -41 -3 -4 -6 0 -6 8 0 12 -2 11
-11 -1 -8 -12 -9 -10 -4 8 4 13 2 22 -5 22 -6 0 -9 -4 -6 -8 2 -4 1 -14 -5
-22 -6 -11 -9 -8 -9 13 0 15 4 27 10 27 5 0 7 7 4 15 -4 8 -2 15 3 15 5 0 15
-16 22 -36z m31 32 c0 -11 -19 -15 -25 -6 -3 5 1 10 9 10 9 0 16 -2 16 -4z
m80 -39 c0 -23 -5 -34 -15 -34 -15 0 -22 47 -8 60 14 15 23 5 23 -26z m-50 13
c0 -5 -4 -10 -10 -10 -5 0 -10 5 -10 10 0 6 5 10 10 10 6 0 10 -4 10 -10z
m192 -62 c10 -10 18 -20 18 -22 0 -9 -46 8 -53 21 -4 7 -18 13 -30 13 -12 0
-17 -4 -12 -8 14 -10 15 -42 1 -43 -22 -3 -39 3 -52 16 -20 20 -17 26 11 21
22 -4 25 -2 20 14 -5 15 -2 17 15 13 11 -3 20 0 20 6 0 13 32 -3 62 -31z
m-314 14 c6 -18 -15 -14 -22 4 -4 10 -1 14 6 12 6 -2 14 -10 16 -16z m129 -4
c-3 -8 -6 -5 -6 6 -1 11 2 17 5 13 3 -3 4 -12 1 -19z m-7 -33 c0 -9 -6 -12
-15 -9 -8 4 -15 10 -15 15 0 5 7 9 15 9 8 0 15 -7 15 -15z m-53 -17 c-3 -8 -6
-5 -6 6 -1 11 2 17 5 13 3 -3 4 -12 1 -19z m-25 -46 c-12 -25 -18 -30 -20 -17
-2 9 1 22 7 28 6 6 11 20 11 32 0 15 2 17 9 6 6 -9 3 -27 -7 -49z m149 -6 l-5
-41 -7 40 c-3 22 -7 32 -8 23 0 -10 -5 -18 -10 -18 -5 0 -23 -3 -40 -6 -20 -4
-31 -3 -31 5 0 6 8 11 18 11 23 1 50 22 45 37 -3 9 1 9 19 1 20 -10 23 -17 19
-52z m-284 22 c-3 -8 -6 -5 -6 6 -1 11 2 17 5 13 3 -3 4 -12 1 -19z m343 13
c0 -5 7 -17 16 -26 9 -9 13 -19 9 -23 -3 -4 -13 1 -20 11 -10 13 -14 15 -18 5
-3 -7 -6 -1 -6 15 -1 15 4 27 9 27 6 0 10 -4 10 -9z m-170 -17 c0 -8 -4 -12
-10 -9 -5 3 -10 10 -10 16 0 5 5 9 10 9 6 0 10 -7 10 -16z m-70 -34 c0 -5 -5
-10 -11 -10 -5 0 -7 5 -4 10 3 6 8 10 11 10 2 0 4 -4 4 -10z m56 -17 c-10 -10
-19 5 -10 18 6 11 8 11 12 0 2 -7 1 -15 -2 -18z m-189 11 c-3 -3 -12 -4 -19
-1 -8 3 -5 6 6 6 11 1 17 -2 13 -5z m365 -12 c3 -10 -2 -24 -10 -32 -14 -13
-15 -12 -10 2 4 8 1 21 -5 28 -9 10 -9 11 1 6 6 -4 12 -2 12 3 0 17 7 13 12
-7z m-177 -22 c3 -5 1 -10 -4 -10 -6 0 -11 5 -11 10 0 6 2 10 4 10 3 0 8 -4
11 -10z m135 0 c0 -5 -7 -10 -16 -10 -8 0 -12 5 -9 10 3 6 10 10 16 10 5 0 9
-4 9 -10z m-150 -55 c-6 -7 -8 -21 -4 -31 5 -16 4 -16 -5 -3 -12 18 -3 62 11
53 5 -3 5 -11 -2 -19z m37 3 c-3 -8 -6 -5 -6 6 -1 11 2 17 5 13 3 -3 4 -12 1
-19z m186 -3 c9 -4 17 -12 17 -17 0 -7 -5 -6 -14 1 -9 7 -29 9 -57 5 -39 -7
-41 -6 -28 9 14 16 48 17 82 2z m-77 -37 c6 -10 -13 -9 -46 2 -23 8 -22 8 8 7
19 -1 36 -5 38 -9z m54 -13 c0 -14 -7 -21 -20 -22 -11 -1 -20 2 -20 8 0 5 8
10 18 10 16 1 16 2 0 6 -25 6 -23 22 2 20 13 -1 20 -8 20 -22z m30 -6 c0 -5
-4 -9 -10 -9 -5 0 -10 7 -10 16 0 8 5 12 10 9 6 -3 10 -10 10 -16z m-160 -49
c0 -7 -6 -6 -15 4 -8 8 -15 20 -15 26 0 7 6 6 15 -4 8 -8 15 -20 15 -26z m30
15 c0 -14 -2 -25 -4 -25 -2 0 -6 11 -8 25 -3 14 -1 25 3 25 5 0 9 -11 9 -25z
m170 15 c0 -5 -4 -10 -10 -10 -5 0 -10 5 -10 10 0 6 5 10 10 10 6 0 10 -4 10
-10z m-263 -25 c0 -10 -10 -15 -27 -15 -37 0 -45 12 -18 26 26 14 45 9 45 -11z
m206 8 c-7 -3 -13 -14 -13 -24 0 -11 -5 -17 -10 -14 -6 4 -8 11 -5 16 4 5 1 9
-4 9 -6 0 -11 4 -11 9 0 5 12 8 28 8 15 0 21 -2 15 -4z m94 -8 c9 -25 -4 -29
-17 -6 -7 15 -7 21 0 21 6 0 13 -7 17 -15z m43 -10 c0 -8 -4 -15 -10 -15 -5 0
-10 7 -10 15 0 8 5 15 10 15 6 0 10 -7 10 -15z m-310 -5 c0 -5 -2 -10 -4 -10
-3 0 -8 5 -11 10 -3 6 -1 10 4 10 6 0 11 -4 11 -10z m190 1 c0 -6 -4 -13 -10
-16 -5 -3 -10 1 -10 9 0 9 5 16 10 16 6 0 10 -4 10 -9z m38 -11 c-7 -11 -16
-20 -19 -20 -4 0 -5 9 -2 20 3 11 12 20 19 20 12 0 12 -4 2 -20z m-208 -10 c0
-5 -5 -10 -11 -10 -5 0 -7 5 -4 10 3 6 8 10 11 10 2 0 4 -4 4 -10z m53 -15
c-7 -21 -13 -19 -13 6 0 11 4 18 10 14 5 -3 7 -12 3 -20z m-120 8 c-7 -2 -19
-2 -25 0 -7 3 -2 5 12 5 14 0 19 -2 13 -5z m-3 -16 c19 0 26 -1 15 -4 -16 -3
-21 -11 -19 -36 1 -22 0 -25 -3 -7 -6 32 -21 42 -52 34 -21 -4 -23 -3 -12 10
7 9 18 13 24 9 6 -4 27 -6 47 -6z m160 4 c0 -5 -6 -12 -12 -15 -7 -3 -2 -3 11
0 16 4 21 3 17 -5 -12 -19 -46 -13 -46 9 0 11 7 20 15 20 8 0 15 -4 15 -9z
m44 -7 c3 -8 2 -12 -4 -9 -6 3 -10 10 -10 16 0 14 7 11 14 -7z m131 6 c17 -7
17 -9 3 -9 -10 -1 -18 -6 -18 -12 0 -6 7 -9 15 -5 9 3 15 0 15 -9 0 -8 -9 -15
-20 -15 -14 0 -20 7 -20 23 -1 20 -2 20 -11 4 -8 -13 -7 -22 1 -33 8 -8 8 -14
2 -14 -6 0 -13 6 -15 13 -3 6 -6 2 -6 -11 -1 -16 4 -22 17 -20 9 2 20 7 23 12
9 12 38 0 46 -20 3 -9 0 -20 -8 -25 -12 -8 -12 -11 1 -19 12 -8 11 -10 -7 -10
-14 0 -23 6 -23 15 0 9 -10 15 -22 16 -22 1 -22 1 2 9 25 8 25 8 -5 10 -16 1
-33 2 -37 1 -16 -2 -7 39 15 73 24 39 23 38 52 26z m-72 -6 c11 -11 -59 -74
-84 -75 -17 -1 -19 -3 -6 -6 18 -5 24 -23 7 -23 -5 0 -19 -9 -30 -20 -18 -18
-22 -19 -35 -6 -20 19 -19 30 1 22 12 -4 15 -2 10 9 -3 9 0 15 9 15 8 0 15 5
15 10 0 6 14 10 30 10 20 0 30 5 30 15 0 9 7 18 16 22 8 3 13 12 10 19 -5 14
15 20 27 8z m122 -21 c-2 -10 -4 -24 -4 -30 -2 -27 -18 -11 -18 17 0 17 6 30
13 30 7 0 11 -8 9 -17z m-343 -35 c-9 -9 -12 -7 -12 12 0 19 3 21 12 12 9 -9
9 -15 0 -24z m-1525 -10 c-3 -7 -5 -2 -5 12 0 14 2 19 5 13 2 -7 2 -19 0 -25z
m1643 28 c0 -2 -7 -7 -16 -10 -8 -3 -12 -2 -9 4 6 10 25 14 25 6z m-1603 -38
c-3 -8 -6 -5 -6 6 -1 11 2 17 5 13 3 -3 4 -12 1 -19z m-60 -10 c-3 -8 -6 -5
-6 6 -1 11 2 17 5 13 3 -3 4 -12 1 -19z m1583 8 c0 -2 -7 -7 -16 -10 -8 -3
-12 -2 -9 4 6 10 25 14 25 6z m-34 -33 c-7 -7 -26 7 -26 19 0 6 6 6 15 -2 9
-7 13 -15 11 -17z m-153 10 c-7 -2 -19 -2 -25 0 -7 3 -2 5 12 5 14 0 19 -2 13
-5z m220 -54 c5 -4 18 -4 28 -2 20 6 26 -11 9 -22 -6 -4 -8 -10 -5 -15 3 -5 1
-11 -5 -15 -5 -3 -10 3 -10 14 0 30 -21 37 -41 12 -16 -19 -19 -20 -33 -5 -22
22 -20 27 8 20 23 -6 47 8 27 16 -4 1 -12 14 -16 28 l-7 25 18 -25 c10 -14 22
-28 27 -31z m-1534 10 c-9 -5 -15 -4 -18 2 -2 6 3 15 10 20 9 5 15 4 18 -2 2
-6 -3 -15 -10 -20z m38 9 c-3 -8 -6 -5 -6 6 -1 11 2 17 5 13 3 -3 4 -12 1 -19z
m1587 6 c9 -8 16 -21 16 -27 0 -7 -4 -6 -10 3 -6 10 -10 11 -10 3 0 -24 -15
-13 -16 12 -2 29 -1 30 20 9z m-1684 -11 c0 -7 -7 -13 -15 -13 -8 0 -15 6 -15
13 0 8 7 14 15 14 8 0 15 -6 15 -14z m1434 -29 c5 -14 4 -15 -9 -4 -17 14 -19
20 -6 20 5 0 12 -7 15 -16z m-1101 -19 c-8 -22 -22 -18 -16 5 3 11 9 17 14 15
4 -3 6 -12 2 -20z m-106 1 c-15 -7 -25 -15 -21 -18 3 -4 -5 -4 -17 -1 -23 6
-23 7 6 19 17 7 37 13 45 13 8 0 3 -6 -13 -13z m1228 -26 c3 -5 -1 -10 -10
-10 -9 0 -13 5 -10 10 3 6 8 10 10 10 2 0 7 -4 10 -10z m-1138 -16 c-3 -3 -12
-4 -19 -1 -8 3 -5 6 6 6 11 1 17 -2 13 -5z m70 0 c-3 -3 -12 -4 -19 -1 -8 3
-5 6 6 6 11 1 17 -2 13 -5z m1010 -7 c0 -8 -6 -14 -14 -14 -9 0 -10 4 -2 14 6
7 12 13 14 13 1 0 2 -6 2 -13z m-52 -7 c3 -5 1 -10 -4 -10 -6 0 -11 5 -11 10
0 6 2 10 4 10 3 0 8 -4 11 -10z m-958 -6 c-3 -3 -12 -4 -19 -1 -8 3 -5 6 6 6
11 1 17 -2 13 -5z m90 0 c-3 -3 -12 -4 -19 -1 -8 3 -5 6 6 6 11 1 17 -2 13 -5z
m775 -16 c-4 -16 -2 -19 8 -13 8 5 11 4 6 -3 -3 -5 0 -13 6 -15 9 -4 8 -6 -3
-6 -20 -1 -43 45 -26 53 7 2 13 5 14 5 0 1 -1 -9 -5 -21z m-837 -19 c4 -11 4
-23 1 -26 -3 -4 -6 1 -6 10 0 10 -7 17 -15 17 -8 0 -15 5 -15 10 0 19 29 10
35 -11z m974 -1 c0 -16 -2 -18 -6 -8 -3 8 -11 18 -17 22 -7 5 -4 8 7 8 11 0
17 -7 16 -22z m-919 -23 c0 -8 -4 -15 -10 -15 -5 0 -7 7 -4 15 4 8 8 15 10 15
2 0 4 -7 4 -15z m-28 -25 c3 -17 1 -33 -4 -36 -4 -3 -8 11 -8 30 0 44 6 47 12
6z m115 13 c-3 -2 -20 -6 -38 -8 -27 -3 -30 -2 -16 6 9 6 22 7 27 4 6 -3 10
-1 10 5 0 6 5 8 11 5 6 -4 8 -9 6 -12z m60 -9 c-3 -3 -12 -4 -19 -1 -8 3 -5 6
6 6 11 1 17 -2 13 -5z m593 -24 c0 -5 -10 -10 -22 -9 -22 0 -22 1 -3 9 11 5
21 9 23 9 1 1 2 -3 2 -9z m-685 -10 c-3 -5 -10 -10 -16 -10 -5 0 -9 5 -9 10 0
6 7 10 16 10 8 0 12 -4 9 -10z m140 0 c3 -6 -1 -7 -9 -4 -18 7 -21 14 -7 14 6
0 13 -4 16 -10z m2865 -2 c29 -2 101 -28 77 -28 -4 0 -1 -16 7 -35 8 -19 13
-44 11 -55 -2 -11 0 -22 6 -25 14 -9 11 -35 -5 -35 -8 0 -24 -8 -37 -19 -23
-18 -23 -18 -42 6 -19 23 -23 24 -124 20 -91 -3 -103 -2 -97 12 16 40 21 70
19 104 -3 35 -2 37 26 37 16 0 29 5 29 11 0 7 10 9 25 7 14 -3 28 -1 31 4 3 5
13 6 22 4 10 -3 33 -7 52 -8z m-2790 -60 c0 -16 -3 -19 -11 -11 -6 6 -8 16 -5
22 11 17 16 13 16 -11z m330 -11 c0 -5 -4 -5 -10 -2 -5 3 -10 14 -10 23 0 15
2 15 10 2 5 -8 10 -19 10 -23z m-600 13 c0 -5 -2 -10 -4 -10 -3 0 -8 5 -11 10
-3 6 -1 10 4 10 6 0 11 -4 11 -10z m235 -30 c3 -5 1 -10 -4 -10 -6 0 -11 5
-11 10 0 6 2 10 4 10 3 0 8 -4 11 -10z m115 -20 c0 -5 -5 -10 -11 -10 -5 0 -7
5 -4 10 3 6 8 10 11 10 2 0 4 -4 4 -10z m214 -15 c-4 -8 -11 -15 -16 -15 -6 0
-5 6 2 15 7 8 14 15 16 15 2 0 1 -7 -2 -15z m-219 -42 c0 -14 6 -28 14 -31 10
-3 11 2 6 19 -8 24 -8 24 14 5 19 -18 20 -21 6 -29 -9 -5 -23 -6 -32 -2 -9 3
-20 0 -24 -6 -4 -6 -12 -8 -18 -4 -9 5 -9 10 0 21 16 19 -17 31 -42 15 -21
-12 -24 -5 -9 19 7 12 15 13 40 3 27 -10 30 -9 30 10 0 11 3 17 7 13 4 -4 7
-19 8 -33z m82 -49 c-3 -3 -12 -4 -19 -1 -8 3 -5 6 6 6 11 1 17 -2 13 -5z
m-22 -19 l30 -13 -27 -1 c-15 -1 -29 3 -33 9 -3 5 -12 7 -20 3 -8 -3 -15 0
-15 6 0 15 28 13 65 -4z m2487 -27 c34 -20 49 -36 53 -58 6 -30 16 -42 31 -36
7 3 16 1 19 -3 3 -5 14 -7 25 -4 11 3 20 1 20 -4 0 -5 16 -15 35 -23 46 -18
44 -25 -8 -24 -66 1 -70 3 -61 17 5 7 -1 2 -13 -11 -15 -18 -26 -23 -40 -17
-21 9 -30 11 -58 13 -15 2 -21 10 -23 32 -1 17 2 30 8 30 11 0 1 32 -14 42 -7
5 -6 8 2 8 10 0 9 4 -2 16 -9 8 -14 20 -11 25 8 12 11 11 37 -3z m167 -22
c-10 -22 -19 -26 -51 -26 -26 0 -41 5 -45 15 -8 21 -4 23 47 30 24 3 46 7 48
10 12 11 12 -4 1 -29z m62 10 c7 -14 17 -22 23 -20 6 2 20 -3 31 -11 19 -16
19 -16 -7 -10 -23 4 -28 2 -28 -14 0 -17 -7 -19 -45 -18 -25 1 -44 4 -42 7 1
3 11 24 21 48 21 48 32 52 47 18z m-2616 4 c8 -13 -5 -13 -25 0 -13 8 -13 10
2 10 9 0 20 -4 23 -10z m35 -50 c0 -5 -4 -10 -10 -10 -5 0 -10 5 -10 10 0 6 5
10 10 10 6 0 10 -4 10 -10z m2305 -20 c3 -6 -1 -7 -9 -4 -18 7 -21 14 -7 14 6
0 13 -4 16 -10z m336 -8 c-7 -2 -18 1 -23 6 -8 8 -4 9 13 5 13 -4 18 -8 10
-11z m-2656 -12 c-3 -5 -12 -10 -18 -10 -7 0 -6 4 3 10 19 12 23 12 15 0z
m2645 -20 c0 -5 -7 -7 -15 -4 -8 4 -15 8 -15 10 0 2 7 4 15 4 8 0 15 -4 15
-10z m-68 -82 c-17 -8 -26 -8 -34 0 -9 9 -4 12 23 11 32 0 33 -1 11 -11z
m-375 -50 c-3 -7 -5 -2 -5 12 0 14 2 19 5 13 2 -7 2 -19 0 -25z m336 7 c25
-10 21 -25 -7 -25 -35 0 -56 10 -56 26 0 14 25 14 63 -1z m793 -108 c1 -15 -2
-27 -7 -27 -5 0 -10 3 -10 8 -6 34 -5 52 4 49 5 -1 11 -15 13 -30z m4 -57 c0
-5 -4 -10 -10 -10 -5 0 -10 -5 -10 -11 0 -5 4 -7 10 -4 6 4 7 -6 4 -24 -4 -17
-2 -37 4 -44 7 -8 11 -89 12 -221 0 -115 2 -211 4 -215 4 -5 10 -904 7 -1086
0 -38 0 -74 1 -80 1 -5 -2 -21 -6 -34 -5 -15 -4 -21 2 -17 6 4 10 -122 11
-369 1 -219 -2 -375 -7 -375 -17 0 -34 28 -32 52 1 13 1 25 1 28 -1 3 -4 118
-7 255 -3 138 -6 255 -8 260 -2 6 -44 10 -100 10 l-97 -1 3 26 c2 16 9 25 20
24 10 -1 49 -4 88 -8 94 -7 103 2 101 110 -3 190 -11 328 -21 362 -15 47 -17
55 -20 67 -1 6 -10 20 -20 32 -14 18 -15 33 -9 85 4 35 9 89 12 122 3 32 9 61
14 65 15 11 10 54 -9 73 -24 24 -27 155 -3 155 9 0 15 -9 15 -21 0 -17 -2 -18
-10 -6 -6 10 -8 -2 -7 -38 1 -28 5 -52 9 -52 3 0 4 -9 1 -20 -3 -11 -1 -20 4
-20 6 0 11 62 11 153 1 83 4 175 6 204 3 33 0 55 -7 61 -12 10 -58 9 -75 -2
-10 -6 -32 35 -32 59 0 10 13 12 55 8 51 -5 55 -4 55 16 0 12 3 20 8 18 6 -4
8 45 2 63 -6 19 3 148 12 164 8 16 7 18 -5 13 -13 -5 -15 -2 -7 19 5 13 8 48
5 77 -2 28 -2 60 1 70 6 18 24 24 24 7z m-894 -40 c33 -1 52 -22 39 -46 -11
-21 -11 -21 -34 -3 -13 11 -28 19 -35 19 -14 0 -48 55 -39 64 4 3 16 -3 28
-14 12 -11 30 -20 41 -20z m811 -540 c1 -11 -4 -20 -12 -20 -11 0 -13 14 -6
38 4 11 17 -2 18 -18z m3 -77 c0 -45 -5 -40 -13 10 -3 22 -2 35 4 32 5 -4 9
-22 9 -42z m-1100 -68 c0 -8 -2 -15 -4 -15 -2 0 -6 7 -10 15 -3 8 -1 15 4 15
6 0 10 -7 10 -15z m844 -181 c18 -7 22 -60 6 -84 -8 -12 -10 -9 -10 12 0 15
-4 38 -10 52 -10 28 -10 29 14 20z m-94 -589 c21 -47 28 -149 10 -160 -6 -4
-10 18 -10 57 0 44 -6 76 -20 103 -11 22 -20 43 -20 48 0 19 21 -7 40 -48z
m182 -45 c-2 -17 -9 -30 -14 -30 -5 0 -6 10 -2 23 4 12 7 31 6 42 -1 13 1 16
7 7 4 -7 6 -26 3 -42z m-170 -230 c5 0 12 9 16 21 7 19 10 17 24 -18 22 -51
38 -119 41 -168 2 -34 -1 -40 -18 -43 -16 -2 -25 8 -42 45 -38 90 -68 216 -56
236 5 7 11 -6 17 -30 5 -24 13 -43 18 -43z m453 -1180 c-3 -5 -10 -10 -16 -10
-5 0 -9 5 -9 10 0 6 7 10 16 10 8 0 12 -4 9 -10z m1 -55 c-1 -24 -6 -35 -16
-36 -10 0 -8 -3 5 -9 l20 -9 -20 -1 -20 -1 20 -9 c11 -5 14 -9 6 -9 -8 -1 -11
-7 -7 -17 4 -9 9 -50 12 -90 l6 -74 -41 0 c-44 0 -49 6 -26 36 8 10 15 39 15
63 0 42 1 44 16 25 8 -10 14 -14 11 -9 -15 37 -19 56 -20 100 -1 54 6 75 27
75 8 0 12 -13 12 -35z m-3416 -143 c0 -23 -35 -51 -77 -62 l-48 -13 58 -8 c64
-7 104 -33 78 -48 -22 -14 -97 -24 -196 -26 -62 -1 -100 -7 -122 -18 -43 -23
-62 -22 -56 2 7 29 92 111 114 111 5 0 36 12 67 26 31 15 71 30 87 34 41 11
95 12 95 2z m-823 -87 c0 -8 -4 -12 -9 -9 -4 3 -8 9 -8 15 0 5 4 9 8 9 5 0 9
-7 9 -15z m39 -43 c-17 -16 -18 -16 -5 5 7 12 15 20 18 17 3 -2 -3 -12 -13
-22z m1309 -162 c0 -26 -20 -36 -44 -21 -21 14 -4 53 22 49 16 -2 22 -10 22
-28z m2852 -152 c-3 -8 -6 -5 -6 6 -1 11 2 17 5 13 3 -3 4 -12 1 -19z m-2792
-187 c50 -5 178 -16 285 -25 224 -19 306 -38 313 -72 8 -44 -2 -47 -122 -34
-73 8 -116 8 -124 2 -25 -20 -77 -24 -103 -8 -20 14 -28 14 -47 4 -27 -15
-194 -20 -218 -7 -10 5 -47 10 -81 10 -35 1 -71 5 -80 10 -10 6 -62 12 -115
15 -156 8 -167 10 -171 23 -3 10 -6 10 -12 1 -12 -19 -49 5 -43 27 12 48 30
58 126 64 99 8 247 4 392 -10z m4095 -12 c21 -38 -36 -86 -66 -56 -6 6 41 77
51 77 2 0 9 -9 15 -21z m-1345 -139 c3 -6 -1 -7 -9 -4 -18 7 -21 14 -7 14 6 0
13 -4 16 -10z m230 -1 c11 -16 1 -19 -13 -3 -7 8 -8 14 -3 14 5 0 13 -5 16
-11z m-68 -12 c2 -4 -23 -6 -56 -5 -34 2 -61 7 -61 11 0 10 110 5 117 -6z
m-796 -54 c13 -16 12 -17 -3 -4 -17 13 -22 21 -14 21 2 0 10 -8 17 -17z"/>
<path d="M137 7407 c4 -19 11 -27 22 -25 9 1 21 -1 28 -5 7 -5 17 1 24 15 11
20 11 22 -3 10 -11 -9 -18 -10 -23 -2 -3 6 -11 8 -16 4 -6 -3 -16 2 -24 12
-12 17 -13 16 -8 -9z"/>
<path d="M365 7390 l-30 -8 28 -1 c15 0 30 -1 34 -2 4 0 9 4 11 10 4 12 1 12
-43 1z"/>
<path d="M1710 6268 c0 -4 7 -8 15 -8 8 0 15 4 15 8 0 5 -7 9 -15 9 -8 0 -15
-4 -15 -9z"/>
<path d="M1635 7310 c-3 -5 -1 -10 4 -10 6 0 11 5 11 10 0 6 -2 10 -4 10 -3 0
-8 -4 -11 -10z"/>
<path d="M1675 7291 c-6 -5 -19 -11 -30 -14 -16 -4 -14 -5 6 -6 16 -1 29 5 33
14 6 17 4 19 -9 6z"/>
<path d="M1570 7270 c0 -6 -11 -8 -26 -6 -17 3 -24 1 -21 -7 3 -7 10 -11 16
-9 6 1 11 -3 11 -9 0 -8 4 -8 14 0 11 9 15 9 19 -1 3 -7 6 -3 6 9 1 12 -3 25
-9 28 -5 3 -10 1 -10 -5z"/>
<path d="M1620 7240 c0 -5 7 -7 15 -4 8 4 15 8 15 10 0 2 -7 4 -15 4 -8 0 -15
-4 -15 -10z"/>
<path d="M2015 7230 c-3 -5 -1 -10 4 -10 6 0 11 5 11 10 0 6 -2 10 -4 10 -3 0
-8 -4 -11 -10z"/>
<path d="M1521 7214 c0 -11 3 -14 6 -6 3 7 2 16 -1 19 -3 4 -6 -2 -5 -13z"/>
<path d="M1540 7206 c0 -9 5 -16 10 -16 6 0 10 4 10 9 0 6 -4 13 -10 16 -5 3
-10 -1 -10 -9z"/>
<path d="M1765 7190 c-3 -5 1 -10 9 -10 9 0 16 5 16 10 0 6 -4 10 -9 10 -6 0
-13 -4 -16 -10z"/>
<path d="M1832 7181 c-11 -6 -10 -10 0 -19 11 -8 14 -7 14 9 0 10 0 19 -1 19
0 0 -6 -4 -13 -9z"/>
<path d="M1790 7159 c0 -5 5 -7 10 -4 6 3 10 8 10 11 0 2 -4 4 -10 4 -5 0 -10
-5 -10 -11z"/>
<path d="M1980 7154 c0 -8 5 -12 10 -9 6 4 8 11 5 16 -9 14 -15 11 -15 -7z"/>
<path d="M2435 7160 c3 -5 8 -10 11 -10 2 0 4 5 4 10 0 6 -5 10 -11 10 -5 0
-7 -4 -4 -10z"/>
<path d="M1887 7105 c5 -14 43 -28 43 -17 0 4 -11 12 -24 18 -19 9 -23 9 -19
-1z"/>
<path d="M2000 7089 c0 -5 5 -7 10 -4 6 3 10 8 10 11 0 2 -4 4 -10 4 -5 0 -10
-5 -10 -11z"/>
<path d="M1915 7051 c-4 -7 0 -8 11 -4 12 4 15 3 10 -5 -4 -7 -2 -12 4 -12 14
0 8 22 -7 27 -6 2 -14 -1 -18 -6z"/>
<path d="M1960 7048 c0 -2 9 -11 20 -21 11 -9 20 -13 20 -7 0 5 -9 14 -20 20
-11 6 -20 9 -20 8z"/>
<path d="M2235 7040 c3 -5 8 -10 11 -10 2 0 4 5 4 10 0 6 -5 10 -11 10 -5 0
-7 -4 -4 -10z"/>
<path d="M1877 7019 c3 -10 9 -16 14 -13 13 8 11 21 -5 27 -10 4 -12 0 -9 -14z"/>
<path d="M1810 7020 c0 -5 4 -10 10 -10 5 0 -1 -15 -13 -34 -12 -18 -25 -29
-28 -24 -3 5 -9 2 -13 -7 -5 -14 -2 -16 13 -12 15 4 22 -2 29 -21 8 -26 9 -26
14 -4 4 12 3 20 -2 17 -7 -4 -20 16 -20 31 0 10 39 3 43 -8 3 -8 6 -6 6 5 1 9
-4 17 -10 17 -6 0 -9 7 -5 15 3 8 3 22 0 30 -7 17 -24 20 -24 5z"/>
<path d="M1852 7000 c0 -14 2 -19 5 -12 2 6 2 18 0 25 -3 6 -5 1 -5 -13z"/>
<path d="M1915 7010 c3 -5 8 -10 11 -10 2 0 4 5 4 10 0 6 -5 10 -11 10 -5 0
-7 -4 -4 -10z"/>
<path d="M1950 7016 c0 -2 7 -9 15 -16 13 -11 14 -10 9 4 -5 14 -24 23 -24 12z"/>
<path d="M1765 6989 c-11 -16 -1 -19 13 -3 7 8 8 14 3 14 -5 0 -13 -5 -16 -11z"/>
<path d="M1975 6970 c-18 -20 -18 -20 16 -19 26 1 28 3 10 6 -18 4 -21 7 -10
13 7 5 11 11 8 15 -3 3 -14 -4 -24 -15z"/>
<path d="M2085 6970 c-3 -5 1 -10 10 -10 9 0 13 5 10 10 -3 6 -8 10 -10 10 -2
0 -7 -4 -10 -10z"/>
<path d="M2148 6963 c7 -3 16 -2 19 1 4 3 -2 6 -13 5 -11 0 -14 -3 -6 -6z"/>
<path d="M2317 6963 c-4 -3 -7 -18 -6 -32 1 -26 1 -25 10 3 9 31 7 41 -4 29z"/>
<path d="M2395 6950 c3 -5 11 -10 16 -10 6 0 7 5 4 10 -3 6 -11 10 -16 10 -6
0 -7 -4 -4 -10z"/>
<path d="M2033 6900 c0 -25 2 -35 4 -22 2 12 2 32 0 45 -2 12 -4 2 -4 -23z"/>
<path d="M1900 6898 c0 -19 2 -20 10 -8 13 19 13 30 0 30 -5 0 -10 -10 -10
-22z"/>
<path d="M1851 6894 c0 -11 3 -14 6 -6 3 7 2 16 -1 19 -3 4 -6 -2 -5 -13z"/>
<path d="M2350 6900 c0 -5 5 -10 10 -10 6 0 10 5 10 10 0 6 -4 10 -10 10 -5 0
-10 -4 -10 -10z"/>
<path d="M2170 6896 c0 -2 7 -9 15 -16 12 -10 15 -10 15 4 0 9 -7 16 -15 16
-8 0 -15 -2 -15 -4z"/>
<path d="M1941 6876 c1 -16 17 -53 18 -41 1 6 4 19 7 31 4 14 1 21 -10 21 -9
0 -16 -5 -15 -11z"/>
<path d="M2126 6878 c3 -5 9 -6 14 -3 4 3 11 -1 13 -7 4 -8 6 -7 6 4 1 11 -6
16 -18 15 -11 0 -17 -5 -15 -9z"/>
<path d="M1820 6865 c-8 -9 -8 -15 -2 -15 12 0 26 19 19 26 -2 2 -10 -2 -17
-11z"/>
<path d="M2091 6799 c17 -11 39 -12 39 -1 0 4 -12 8 -27 9 -19 1 -22 -1 -12
-8z"/>
<path d="M2000 6786 c0 -8 5 -18 10 -21 6 -3 10 3 10 14 0 12 -4 21 -10 21 -5
0 -10 -6 -10 -14z"/>
<path d="M1799 6746 c-17 -38 -11 -47 14 -21 9 8 17 11 19 5 2 -6 8 -6 18 0
13 8 11 11 -7 16 -12 3 -23 13 -25 21 -2 9 -10 0 -19 -21z"/>
<path d="M2305 6770 c-3 -5 -1 -10 4 -10 6 0 11 5 11 10 0 6 -2 10 -4 10 -3 0
-8 -4 -11 -10z"/>
<path d="M2051 6734 c0 -11 3 -14 6 -6 3 7 2 16 -1 19 -3 4 -6 -2 -5 -13z"/>
<path d="M1720 6720 c-13 -8 -13 -10 2 -10 9 0 20 5 23 10 8 13 -5 13 -25 0z"/>
<path d="M1880 6710 c0 -11 4 -20 10 -20 5 0 6 7 3 17 -5 12 -3 14 7 8 9 -5
11 -4 6 3 -11 19 -26 14 -26 -8z"/>
<path d="M1853 6705 c-17 -19 -16 -25 2 -25 8 0 15 9 15 20 0 23 -1 24 -17 5z"/>
<path d="M2247 6709 c7 -7 15 -10 18 -7 3 3 -2 9 -12 12 -14 6 -15 5 -6 -5z"/>
<path d="M1923 6693 c4 -18 1 -23 -13 -23 -11 0 -19 -9 -23 -26 -4 -25 -3 -25
37 -19 43 8 53 12 44 20 -3 3 -18 1 -33 -5 -15 -6 -30 -8 -34 -5 -7 7 20 25
29 20 10 -6 6 43 -4 52 -5 4 -6 -2 -3 -14z"/>
<path d="M1990 6700 c-8 -26 -7 -41 2 -32 6 6 8 16 5 24 -3 7 -6 11 -7 8z"/>
<path d="M2010 6691 c0 -5 5 -13 10 -16 6 -3 10 -2 10 4 0 5 -4 13 -10 16 -5
3 -10 2 -10 -4z"/>
<path d="M2290 6660 c0 -5 5 -10 11 -10 5 0 7 5 4 10 -3 6 -8 10 -11 10 -2 0
-4 -4 -4 -10z"/>
<path d="M1824 6635 c8 -8 18 -15 22 -15 3 0 1 7 -6 15 -7 8 -17 15 -22 15 -5
0 -3 -7 6 -15z"/>
<path d="M2077 6639 c7 -7 15 -10 18 -7 3 3 -2 9 -12 12 -14 6 -15 5 -6 -5z"/>
<path d="M1858 6603 c12 -2 30 -2 40 0 9 3 -1 5 -23 4 -22 0 -30 -2 -17 -4z"/>
<path d="M1815 6580 c-3 -5 1 -10 9 -10 9 0 16 5 16 10 0 6 -4 10 -9 10 -6 0
-13 -4 -16 -10z"/>
<path d="M1870 6583 c8 -3 18 -10 21 -15 3 -5 9 -3 12 6 5 12 0 16 -21 15 -16
0 -21 -3 -12 -6z"/>
<path d="M2037 6559 c7 -7 15 -10 18 -7 3 3 -2 9 -12 12 -14 6 -15 5 -6 -5z"/>
<path d="M1770 6540 c-18 -12 -2 -12 25 0 13 6 15 9 5 9 -8 0 -22 -4 -30 -9z"/>
<path d="M1880 6541 c0 -5 7 -11 15 -15 9 -3 15 0 15 9 0 8 -7 15 -15 15 -8 0
-15 -4 -15 -9z"/>
<path d="M1920 6539 c0 -5 5 -7 10 -4 6 3 10 8 10 11 0 2 -4 4 -10 4 -5 0 -10
-5 -10 -11z"/>
<path d="M1996 6505 c4 -8 8 -15 10 -15 2 0 4 7 4 15 0 8 -4 15 -10 15 -5 0
-7 -7 -4 -15z"/>
<path d="M1970 6446 c0 -9 30 -14 35 -6 4 6 -3 10 -14 10 -12 0 -21 -2 -21 -4z"/>
<path d="M1930 6430 c0 -5 4 -10 9 -10 5 0 18 -3 28 -6 16 -6 16 -5 -2 9 -23
19 -35 21 -35 7z"/>
<path d="M2005 6400 c-3 -5 -1 -10 4 -10 6 0 11 5 11 10 0 6 -2 10 -4 10 -3 0
-8 -4 -11 -10z"/>
<path d="M1925 6379 c-4 -6 -2 -14 4 -18 6 -4 9 -15 5 -24 -9 -24 9 -21 24 4
7 12 12 22 10 23 -2 1 -10 7 -20 14 -12 10 -18 10 -23 1z"/>
<path d="M2051 6374 c0 -11 3 -14 6 -6 3 7 2 16 -1 19 -3 4 -6 -2 -5 -13z"/>
<path d="M1836 6371 c-3 -4 6 -6 19 -3 14 2 25 6 25 8 0 8 -39 4 -44 -5z"/>
<path d="M2025 6320 c-3 -5 -1 -10 4 -10 6 0 11 5 11 10 0 6 -2 10 -4 10 -3 0
-8 -4 -11 -10z"/>
<path d="M2138 6313 c7 -3 16 -2 19 1 4 3 -2 6 -13 5 -11 0 -14 -3 -6 -6z"/>
<path d="M2248 6313 c7 -3 16 -2 19 1 4 3 -2 6 -13 5 -11 0 -14 -3 -6 -6z"/>
<path d="M2175 6250 c3 -5 8 -10 11 -10 2 0 4 5 4 10 0 6 -5 10 -11 10 -5 0
-7 -4 -4 -10z"/>
<path d="M1914 6242 c5 -8 -5 -12 -32 -12 -37 0 -40 -2 -34 -22 3 -13 13 -30
23 -38 11 -10 15 -25 12 -41 -3 -19 0 -25 15 -26 15 -1 18 4 15 22 -3 12 1 26
8 30 9 6 11 3 6 -8 -3 -9 -2 -19 3 -22 6 -4 10 3 10 14 0 15 7 21 23 22 15 0
17 2 7 6 -8 3 -18 11 -22 17 -5 7 -8 6 -8 -4 0 -17 -36 -24 -45 -9 -4 5 3 9
14 9 12 0 21 7 21 16 0 8 -4 12 -10 9 -13 -8 -13 8 1 22 8 8 7 13 -2 18 -8 5
-10 4 -5 -3z m-24 -38 c0 -8 -5 -12 -10 -9 -6 4 -8 11 -5 16 9 14 15 11 15 -7z"/>
<path d="M2153 6233 c-15 -5 -17 -23 -4 -23 5 0 11 7 15 15 3 8 4 15 3 14 -1
0 -8 -3 -14 -6z"/>
<path d="M1940 6214 c0 -8 5 -12 10 -9 6 4 8 11 5 16 -9 14 -15 11 -15 -7z"/>
<path d="M2038 6213 c-12 -3 -18 -14 -17 -31 1 -18 3 -21 6 -9 3 11 11 16 19
13 9 -3 14 1 14 14 0 11 -1 19 -2 19 -2 -1 -11 -3 -20 -6z"/>
<path d="M2060 6170 c-13 -8 -12 -10 3 -10 9 0 17 5 17 10 0 12 -1 12 -20 0z"/>
<path d="M2100 6160 c-9 -6 -10 -10 -3 -10 6 0 15 5 18 10 8 12 4 12 -15 0z"/>
<path d="M2248 6153 c7 -3 16 -2 19 1 4 3 -2 6 -13 5 -11 0 -14 -3 -6 -6z"/>
<path d="M2038 6143 c7 -3 16 -2 19 1 4 3 -2 6 -13 5 -11 0 -14 -3 -6 -6z"/>
<path d="M1861 6124 c0 -11 3 -14 6 -6 3 7 2 16 -1 19 -3 4 -6 -2 -5 -13z"/>
<path d="M1966 6133 c-14 -14 -5 -31 14 -26 11 3 20 9 20 13 0 10 -26 20 -34
13z"/>
<path d="M2255 6130 c-3 -5 -1 -10 4 -10 6 0 11 5 11 10 0 6 -2 10 -4 10 -3 0
-8 -4 -11 -10z"/>
<path d="M2277 6111 c-3 -13 -1 -18 9 -14 7 2 10 11 7 19 -7 19 -10 18 -16 -5z"/>
<path d="M2010 6095 c0 -8 5 -15 10 -15 6 0 10 7 10 15 0 8 -4 15 -10 15 -5 0
-10 -7 -10 -15z"/>
<path d="M2338 6103 c7 -3 16 -2 19 1 4 3 -2 6 -13 5 -11 0 -14 -3 -6 -6z"/>
<path d="M2163 6088 c0 -8 15 -14 34 -15 37 -2 45 12 11 21 -34 9 -45 7 -45
-6z"/>
<path d="M2120 6064 c-13 -32 -12 -37 0 -29 6 3 10 15 10 25 0 10 6 21 13 23
9 4 9 6 -1 6 -7 1 -17 -11 -22 -25z"/>
<path d="M2326 6064 c-4 -9 -4 -19 -1 -22 2 -3 7 3 11 12 4 9 4 19 1 22 -2 3
-7 -3 -11 -12z"/>
<path d="M2271 6065 c-1 -13 19 -35 31 -35 4 0 8 5 8 10 0 6 -6 10 -14 10 -8
0 -17 6 -19 13 -3 6 -6 7 -6 2z"/>
<path d="M1992 6034 c-17 -19 -15 -22 13 -16 27 5 33 17 12 25 -6 2 -18 -2
-25 -9z"/>
<path d="M2045 6030 c-8 -13 5 -13 25 0 13 8 13 10 -2 10 -9 0 -20 -4 -23 -10z"/>
<path d="M2360 6020 c0 -5 5 -10 11 -10 5 0 7 5 4 10 -3 6 -8 10 -11 10 -2 0
-4 -4 -4 -10z"/>
<path d="M2190 6005 c7 -8 22 -14 34 -14 20 2 20 2 -1 6 -13 2 -23 9 -23 14 0
5 -5 9 -11 9 -8 0 -8 -5 1 -15z"/>
<path d="M2150 6001 c0 -6 4 -13 10 -16 6 -3 7 1 4 9 -7 18 -14 21 -14 7z"/>
<path d="M2030 5975 c7 -8 19 -15 27 -15 13 0 13 3 3 15 -7 8 -19 15 -27 15
-13 0 -13 -3 -3 -15z"/>
<path d="M1990 5973 c0 -5 5 -15 10 -23 7 -12 9 -10 7 8 -1 19 -17 33 -17 15z"/>
<path d="M2218 5963 c7 -3 16 -2 19 1 4 3 -2 6 -13 5 -11 0 -14 -3 -6 -6z"/>
<path d="M1970 5946 c0 -9 5 -16 10 -16 6 0 10 4 10 9 0 6 -4 13 -10 16 -5 3
-10 -1 -10 -9z"/>
<path d="M2090 5950 c0 -5 5 -10 10 -10 6 0 10 5 10 10 0 6 -4 10 -10 10 -5 0
-10 -4 -10 -10z"/>
<path d="M2051 5941 c-17 -11 -8 -27 18 -34 12 -3 22 1 25 10 4 11 0 13 -17 9
-12 -3 -16 -3 -9 0 13 6 17 24 5 24 -5 0 -14 -4 -22 -9z"/>
<path d="M2220 5941 c0 -5 -12 -12 -27 -14 -16 -3 -10 -4 13 -3 29 1 40 5 37
14 -6 14 -23 16 -23 3z"/>
<path d="M1996 5922 c-3 -5 1 -9 9 -9 8 0 12 4 9 9 -3 4 -7 8 -9 8 -2 0 -6 -4
-9 -8z"/>
<path d="M2030 5896 c0 -11 -5 -16 -13 -13 -8 3 -14 -4 -15 -17 -1 -14 4 -23
13 -23 8 0 15 8 15 18 0 9 6 19 13 22 10 4 10 7 0 18 -11 11 -13 10 -13 -5z"/>
<path d="M2175 5870 c3 -5 10 -10 16 -10 5 0 9 5 9 10 0 6 -7 10 -16 10 -8 0
-12 -4 -9 -10z"/>
<path d="M2135 5860 c-3 -5 -1 -10 4 -10 6 0 11 5 11 10 0 6 -2 10 -4 10 -3 0
-8 -4 -11 -10z"/>
<path d="M2041 5856 c-1 -5 6 -17 15 -27 19 -21 11 -39 -19 -39 -14 0 -18 -3
-11 -10 17 -17 68 6 60 26 -3 9 -6 20 -6 25 0 5 -6 9 -14 9 -8 0 -17 6 -19 13
-3 6 -6 8 -6 3z"/>
<path d="M2095 5850 c-3 -5 -1 -10 4 -10 6 0 11 5 11 10 0 6 -2 10 -4 10 -3 0
-8 -4 -11 -10z"/>
<path d="M2175 5840 c-13 -6 -15 -9 -5 -9 8 0 22 4 30 9 18 12 2 12 -25 0z"/>
<path d="M1982 5805 c-1 -22 6 -51 14 -65 10 -16 13 -18 8 -5 -4 11 -10 40
-14 65 l-7 45 -1 -40z"/>
<path d="M2460 5819 c0 -5 5 -7 10 -4 6 3 10 8 10 11 0 2 -4 4 -10 4 -5 0 -10
-5 -10 -11z"/>
<path d="M2130 5765 c0 -2 10 -10 23 -16 20 -11 21 -11 8 4 -13 16 -31 23 -31
12z"/>
<path d="M1961 5744 c0 -11 3 -14 6 -6 3 7 2 16 -1 19 -3 4 -6 -2 -5 -13z"/>
<path d="M2188 5753 c6 -2 18 -2 25 0 6 3 1 5 -13 5 -14 0 -19 -2 -12 -5z"/>
<path d="M1790 5710 c0 -5 9 -10 19 -10 11 0 23 5 26 10 4 6 -5 10 -19 10 -14
0 -26 -4 -26 -10z"/>
<path d="M2200 5710 c0 -5 5 -10 10 -10 6 0 10 5 10 10 0 6 -4 10 -10 10 -5 0
-10 -4 -10 -10z"/>
<path d="M1849 5703 c-1 -5 -1 -12 0 -17 1 -4 -6 -20 -15 -33 -13 -20 -18 -23
-25 -12 -11 18 -10 0 1 -26 8 -18 9 -18 9 -2 1 10 5 16 10 12 5 -3 12 3 15 12
3 10 4 3 2 -14 -1 -18 2 -33 7 -33 5 0 7 17 4 40 -3 22 -1 40 4 40 5 0 9 9 9
20 0 18 -19 29 -21 13z"/>
<path d="M140 5689 c0 -5 9 -9 20 -9 11 0 20 2 20 4 0 2 -9 6 -20 9 -11 3 -20
1 -20 -4z"/>
<path d="M2237 5689 c7 -7 15 -10 18 -7 3 3 -2 9 -12 12 -14 6 -15 5 -6 -5z"/>
<path d="M1750 5669 c-13 -22 -6 -54 9 -44 9 5 13 65 5 65 -2 0 -8 -9 -14 -21z"/>
<path d="M1880 5664 c-13 -32 -13 -54 -1 -35 5 7 13 11 19 7 5 -3 12 8 14 24
6 38 -18 41 -32 4z m17 -6 c-3 -8 -6 -5 -6 6 -1 11 2 17 5 13 3 -3 4 -12 1
-19z"/>
<path d="M288 5673 c-11 -3 -18 -14 -18 -29 0 -14 4 -22 10 -19 6 3 10 12 10
20 0 8 8 19 18 24 18 11 10 12 -20 4z"/>
<path d="M1654 5664 c3 -9 6 -19 6 -23 0 -4 7 -8 15 -8 18 0 18 7 1 30 -16 21
-30 22 -22 1z"/>
<path d="M1787 5673 c-4 -3 -7 -18 -6 -32 1 -26 1 -25 10 3 9 31 7 41 -4 29z"/>
<path d="M1947 5673 c-10 -9 -9 -23 2 -23 5 0 11 7 15 15 5 15 -5 20 -17 8z"/>
<path d="M1620 5649 c0 -5 5 -7 10 -4 6 3 10 8 10 11 0 2 -4 4 -10 4 -5 0 -10
-5 -10 -11z"/>
<path d="M215 5600 c3 -5 8 -10 11 -10 2 0 4 5 4 10 0 6 -5 10 -11 10 -5 0 -7
-4 -4 -10z"/>
<path d="M1730 5600 c0 -5 5 -10 11 -10 5 0 7 5 4 10 -3 6 -8 10 -11 10 -2 0
-4 -4 -4 -10z"/>
<path d="M2118 5593 c7 -3 16 -2 19 1 4 3 -2 6 -13 5 -11 0 -14 -3 -6 -6z"/>
<path d="M1793 5583 c-19 -7 -16 -19 5 -19 9 -1 25 -4 35 -9 10 -4 17 -3 17 5
0 6 -4 9 -9 6 -5 -3 -11 1 -15 9 -6 15 -12 17 -33 8z"/>
<path d="M281 5563 c0 -11 3 -13 6 -5 2 6 9 10 13 7 5 -3 11 -1 15 5 3 5 -3
10 -14 10 -14 0 -21 -6 -20 -17z"/>
<path d="M2335 5570 c-3 -5 -1 -10 4 -10 6 0 11 5 11 10 0 6 -2 10 -4 10 -3 0
-8 -4 -11 -10z"/>
<path d="M450 5556 c0 -9 5 -16 10 -16 6 0 10 4 10 9 0 6 -4 13 -10 16 -5 3
-10 -1 -10 -9z"/>
<path d="M1585 5560 c3 -5 8 -10 11 -10 2 0 4 5 4 10 0 6 -5 10 -11 10 -5 0
-7 -4 -4 -10z"/>
<path d="M310 5550 c-11 -7 -6 -8 17 -4 20 4 39 2 48 -6 12 -10 15 -10 15 4 0
18 -55 23 -80 6z"/>
<path d="M1685 5530 c4 -6 11 -8 16 -5 14 9 11 15 -7 15 -8 0 -12 -5 -9 -10z"/>
<path d="M480 5460 c0 -5 5 -10 10 -10 6 0 10 5 10 10 0 6 -4 10 -10 10 -5 0
-10 -4 -10 -10z"/>
<path d="M607 5446 c-16 -13 -16 -14 5 -19 13 -4 27 -2 32 3 7 7 6 10 -3 10
-7 0 -9 5 -6 10 9 14 -7 12 -28 -4z"/>
<path d="M1240 5450 c0 -5 5 -10 10 -10 6 0 10 5 10 10 0 6 -4 10 -10 10 -5 0
-10 -4 -10 -10z"/>
<path d="M1448 5443 c7 -3 16 -2 19 1 4 3 -2 6 -13 5 -11 0 -14 -3 -6 -6z"/>
<path d="M640 5400 c0 -5 5 -10 11 -10 5 0 7 5 4 10 -3 6 -8 10 -11 10 -2 0
-4 -4 -4 -10z"/>
<path d="M591 5300 c-1 -20 -3 -22 -11 -10 -6 9 -10 10 -10 3 0 -6 5 -15 10
-18 12 -7 24 19 17 37 -3 7 -6 2 -6 -12z"/>
<path d="M785 5301 l-30 -7 36 -5 c27 -3 35 -1 32 8 -3 7 -6 12 -7 12 0 -1
-14 -4 -31 -8z"/>
<path d="M896 5267 c3 -10 9 -15 12 -12 3 3 0 11 -7 18 -10 9 -11 8 -5 -6z"/>
<path d="M955 5260 c-8 -13 4 -32 16 -25 12 8 12 35 0 35 -6 0 -13 -4 -16 -10z"/>
<path d="M920 5245 c-8 -9 -8 -15 -2 -15 12 0 26 19 19 26 -2 2 -10 -2 -17
-11z"/>
<path d="M861 5214 c0 -11 3 -14 6 -6 3 7 2 16 -1 19 -3 4 -6 -2 -5 -13z"/>
<path d="M800 5211 c0 -7 -4 -9 -10 -6 -6 4 -7 -1 -3 -11 6 -15 7 -15 15 1 6
9 7 19 4 22 -3 4 -6 1 -6 -6z"/>
<path d="M890 5109 c0 -5 5 -7 10 -4 6 3 10 8 10 11 0 2 -4 4 -10 4 -5 0 -10
-5 -10 -11z"/>
<path d="M1964 4722 c2 -4 -10 -6 -28 -4 -44 5 -58 -24 -54 -108 l3 -65 38 -3
c36 -3 37 -3 37 33 0 32 -2 35 -25 31 -14 -3 -25 0 -25 6 0 5 7 8 15 4 15 -5
22 24 9 37 -12 11 -34 -5 -34 -26 0 -11 -3 -18 -6 -14 -11 10 6 57 20 57 7 0
20 -7 27 -16 12 -14 14 -14 20 3 8 23 11 -92 4 -128 -4 -16 -15 -29 -27 -32
-18 -5 -19 -8 -8 -22 13 -15 15 -15 30 6 11 14 22 19 30 14 10 -6 12 -2 8 13
-4 12 -3 20 1 17 5 -2 9 36 10 84 1 70 -2 93 -15 105 -16 16 -39 22 -30 8z"/>
<path d="M2133 4714 c-6 -17 4 -184 12 -193 3 -2 92 -5 198 -5 l192 -1 3 107
3 106 -201 2 c-176 1 -201 -1 -207 -16z"/>
<path d="M2552 4708 c6 -18 28 -21 28 -4 0 9 -7 16 -16 16 -9 0 -14 -5 -12
-12z"/>
<path d="M2572 4585 c0 -16 2 -22 5 -12 2 9 2 23 0 30 -3 6 -5 -1 -5 -18z"/>
<path d="M2140 4435 c10 -12 46 -15 205 -15 107 0 200 3 209 6 47 18 -5 24
-205 24 -196 0 -220 -2 -209 -15z"/>
<path d="M7420 4079 c-25 -10 -57 -18 -72 -18 -15 -1 -30 -5 -33 -11 -3 -5
-16 -10 -28 -10 -44 0 -93 -26 -135 -71 -23 -25 -42 -50 -42 -55 0 -6 -14 -18
-30 -28 -50 -29 -120 -106 -120 -131 0 -13 -14 -46 -31 -73 -46 -75 -63 -170
-49 -290 7 -63 19 -114 35 -149 30 -63 31 -82 5 -132 -11 -22 -22 -57 -26 -78
-5 -36 -2 -44 30 -79 20 -21 36 -43 36 -48 0 -4 14 -26 31 -47 24 -31 37 -39
63 -39 31 0 66 -24 66 -46 0 -5 4 -15 8 -21 11 -17 185 -69 253 -76 31 -2 66
-10 78 -17 12 -6 30 -13 39 -15 9 -2 50 -11 90 -19 40 -9 99 -16 130 -16 32 0
72 -4 91 -10 44 -12 67 1 76 42 4 18 10 37 12 41 3 5 7 28 8 50 8 110 17 151
41 183 14 18 31 32 37 31 9 -1 13 92 15 356 l2 357 -35 75 c-20 41 -45 79 -55
85 -11 6 -20 17 -20 25 0 8 -12 22 -27 32 -16 9 -40 28 -54 42 -118 116 -146
131 -307 165 -12 3 -25 7 -30 9 -4 3 -27 -3 -52 -14z m-123 -130 c16 -6 22
-13 15 -16 -8 -3 0 -17 22 -38 19 -18 34 -39 32 -47 -1 -7 -15 -36 -31 -65
-25 -45 -35 -53 -73 -63 -23 -6 -45 -17 -48 -24 -6 -17 -159 -23 -169 -6 -3 5
-15 10 -26 10 -26 0 -25 41 1 65 11 10 20 25 20 34 0 23 68 91 91 91 10 0 34
16 53 35 37 37 65 43 113 24z"/>
<path d="M423 3545 c-18 -8 -33 -18 -33 -24 0 -11 -86 -61 -105 -61 -7 0 -32
-16 -56 -35 -24 -19 -52 -35 -61 -35 -20 0 -58 -51 -58 -78 0 -21 -20 -84 -29
-92 -14 -11 -41 -60 -41 -75 0 -8 -9 -15 -20 -15 -20 0 -20 -7 -20 -409 l0
-410 107 5 c642 26 934 30 1248 13 122 -6 142 -5 159 9 11 10 16 12 13 5 -5
-7 0 -9 13 -6 10 3 22 14 26 25 4 13 9 16 17 10 8 -6 24 -5 44 2 l31 11 -86
98 -86 99 -7 91 c-10 114 -17 147 -35 147 -8 0 -31 15 -51 33 -21 19 -46 37
-55 40 -14 5 -18 18 -18 53 0 41 -2 46 -20 41 -11 -3 -18 -1 -14 4 3 5 -1 9
-9 9 -39 0 -121 35 -163 70 -27 22 -52 40 -56 40 -4 0 -24 16 -45 35 -38 35
-39 35 -130 35 -50 0 -98 3 -107 6 -8 3 -25 27 -36 52 -44 98 -65 138 -80 153
-8 9 -43 46 -77 83 -54 57 -96 87 -121 86 -4 -1 -22 -7 -39 -15z m874 -717
c-3 -8 -6 -5 -6 6 -1 11 2 17 5 13 3 -3 4 -12 1 -19z"/>
<path d="M7986 2649 c-9 -48 -7 -107 4 -114 6 -4 10 22 10 69 0 42 -2 76 -4
76 -2 0 -6 -14 -10 -31z"/>
<path d="M1685 2349 c-16 -10 -39 -19 -50 -20 -17 -1 -16 -2 5 -9 48 -15 89
-11 100 10 22 41 -6 51 -55 19z"/>
<path d="M2405 2025 c-11 -8 -44 -17 -74 -20 -30 -4 -71 -14 -90 -23 l-36 -17
56 -3 c54 -3 57 -5 62 -32 4 -16 17 -34 29 -41 13 -7 36 -25 51 -41 16 -15 34
-28 42 -28 7 0 15 -7 19 -15 3 -8 11 -15 18 -15 7 0 24 -9 38 -20 25 -19 60
-27 60 -12 0 4 -9 21 -20 37 -11 17 -20 37 -20 46 0 38 -89 200 -108 198 -4 0
-16 -6 -27 -14z"/>
<path d="M302 2018 c-20 -20 -13 -38 13 -38 28 0 30 7 11 32 -10 13 -15 15
-24 6z"/>
<path d="M360 1980 c-8 -5 -10 -10 -5 -10 6 0 21 -3 35 -7 22 -6 24 -5 11 10
-16 20 -20 20 -41 7z"/>
<path d="M4221 914 c0 -11 3 -14 6 -6 3 7 2 16 -1 19 -3 4 -6 -2 -5 -13z"/>
<path d="M4775 920 c-3 -5 -1 -10 4 -10 6 0 11 5 11 10 0 6 -2 10 -4 10 -3 0
-8 -4 -11 -10z"/>
<path d="M4458 903 c7 -3 16 -2 19 1 4 3 -2 6 -13 5 -11 0 -14 -3 -6 -6z"/>
<path d="M4490 900 c0 -5 5 -10 10 -10 6 0 10 5 10 10 0 6 -4 10 -10 10 -5 0
-10 -4 -10 -10z"/>
</g>
</svg>
